<svg xmlns="http://www.w3.org/2000/svg" viewBox="0 0 59.27 59.11">
	<defs>
		<style>
			.cls-1{fill:none;stroke:#cd983f;stroke-miterlimit:10;stroke-width:0.75px;}
		</style>
	</defs>
	<title>
		letter
	</title>
	<g id="Layer_2" data-name="Layer 2">
		<g id="หน้า4">
			<rect class="cls-1 lter" x="15.61" y="19.32" width="27.43" height="19.42" />
			<path class="cls-1 lter" d="M16.28,19.83,29,31.1,43,19.32" />
			<line class="cls-1 lter" x1="15.61" y1="38.74" x2="25.82" y2="28.84" />
			<line class="cls-1 lter" x1="32.19" y1="28.6" x2="42.73" y2="38.48" />
			<line class="cls-1 lines" x1="29.52" x2="29.52" y2="6.6" />
			<line class="cls-1 lines" x1="15" y1="3.62" x2="18.8" y2="9.06" />
			<line class="cls-1 lines" x1="4.01" y1="14.81" x2="9.35" y2="18.41" />
			<line class="cls-1 lines" y1="29.2" x2="6.68" y2="29.2" />
			<line class="cls-1 lines" x1="4.21" y1="43.48" x2="9.35" y2="40.39" />
			<line class="cls-1 lines" x1="15.24" y1="54.91" x2="18.66" y2="49.29" />
			<line class="cls-1 lines" x1="29.61" y1="51.99" x2="29.61" y2="59.11" />
			<line class="cls-1 lines" x1="40.49" y1="49.29" x2="43.9" y2="54.7" />
			<line class="cls-1 lines" x1="49.66" y1="40.26" x2="55.21" y2="44.03" />
			<line class="cls-1 lines" x1="52.3" y1="29.24" x2="59.27" y2="29.24" />
			<line class="cls-1 lines" x1="49.74" y1="18.5" x2="54.93" y2="15.08" />
			<line class="cls-1 lines" x1="40.92" y1="8.97" x2="43.98" y2="3.78" />
		</g>
	</g>
</svg>
