<?xml version="1.0" encoding="utf-8"?>
<!-- Generator: Adobe Illustrator 24.0.3, SVG Export Plug-In . SVG Version: 6.00 Build 0) -->
<svg version="1.1" id="Layer_1" xmlns="http://www.w3.org/2000/svg" xmlns:xlink="http://www.w3.org/1999/xlink" x="0px" y="0px" viewBox="0 0 260.7 256.1" style="enable-background:new 0 0 260.7 256.1;" xml:space="preserve">
	<style type="text/css">
		.st0{fill:#B5885E;}
		.st1{font-family:'ArialMT';}
		.st2{font-size:31.7511px;}
		.st3{font-size:31.65px;}
		.st4{font-size:31.7795px;}
		.st5{font-size:31.6453px;}
		.st6{font-size:31.5359px;}
		.st7{font-size:31.7274px;}
		.st8{font-size:31.7921px;}
		.st9{font-size:31.7164px;}
		.st10{font-size:31.5374px;}
		.st11{font-size:31.7338px;}
		.st12{font-size:31.5628px;}
		.st13{font-size:31.5898px;}
		.st14{font-size:31.6373px;}
		.st15{font-size:31.5517px;}
		.st16{font-size:31.5263px;}
		.st17{fill:#C59E6E;}
		.st18{fill:none;stroke:#FFFFFF;stroke-width:1.44;stroke-miterlimit:10;}
		.st19{fill:none;stroke:#FFFFFF;stroke-width:1.29;stroke-miterlimit:10;}
		.st20{fill:#FFFFFF;stroke:#FFFFFF;stroke-width:0.59;stroke-miterlimit:10;}
		.st21{fill:none;stroke:#FFFFFF;stroke-width:0.52;stroke-miterlimit:10;}
		.st22{fill:#FFFFFF;}
		.st23{fill:none;stroke:#FFFFFF;stroke-width:0.59;stroke-miterlimit:10;}
	</style>
	<title>
		main_logo
	</title>
	<g>
		<g id="text-circle">
			<text transform="matrix(7.974522e-02 0.9968 -0.9968 7.974522e-02 226.4603 114.9003)" class="st0 st1 st2">
				s
			</text>
			<text transform="matrix(-3.995742e-02 0.9992 -0.9992 -3.995742e-02 227.3499 126.77)" class="st0 st1 st3">
				t
			</text>
			<text transform="matrix(-0.17 0.9854 -0.9854 -0.17 227.1596 136.6199)" class="st0 st1 st3">
				a
			</text>
			<text transform="matrix(-0.298 0.9546 -0.9546 -0.298 224.5602 150.9799)" class="st0 st1 st3">
				r
			</text>
			<text transform="matrix(-0.4055 0.9141 -0.9141 -0.4055 221.4202 161.0102)" class="st0 st1 st3">
				t
			</text>
			<text transform="matrix(-0.6216 0.7834 -0.7834 -0.6216 210.9895 181.0401)" class="st0 st1 st3">
				s
			</text>
			<text transform="matrix(-0.7071 0.7071 -0.7071 -0.7071 203.5382 190.3799)" class="st0 st1 st4">
				t
			</text>
			<text transform="matrix(-0.7909 0.6119 -0.6119 -0.7909 196.7093 197.4799)" class="st0 st1 st3">
				a
			</text>
			<text transform="matrix(-0.8601 0.5101 -0.5101 -0.8601 185.1001 206.32)" class="st0 st1 st5">
				r
			</text>
			<text transform="matrix(-0.9113 0.4118 -0.4118 -0.9113 175.9992 211.6797)" class="st0 st1 st3">
				t
			</text>
			<text transform="matrix(-0.9835 0.1807 -0.1807 -0.9835 154.8597 219.7513)" class="st0 st1 st6">
				s
			</text>
			<text transform="matrix(-0.9976 6.982913e-02 -6.982913e-02 -0.9976 143.0898 221.9)" class="st0 st1 st7">
				t
			</text>
			<text transform="matrix(-0.999 -4.396819e-02 4.396819e-02 -0.999 133.2803 222.7303)" class="st0 st1 st3">
				a
			</text>
			<text transform="matrix(-0.9856 -0.1692 0.1692 -0.9856 118.6611 221.9406)" class="st0 st1 st8">
				r
			</text>
			<text transform="matrix(-0.9614 -0.2753 0.2753 -0.9614 108.2703 220.1306)" class="st0 st1 st3">
				t
			</text>
			<text transform="matrix(-0.8674 -0.4976 0.4976 -0.8674 86.9096 212.6091)" class="st0 st1 st3">
				s
			</text>
			<text transform="matrix(-0.8083 -0.5888 0.5888 -0.8083 76.5594 206.6393)" class="st0 st1 st9">
				t
			</text>
			<text transform="matrix(-0.7267 -0.6869 0.6869 -0.7267 68.4902 200.961)" class="st0 st1 st8">
				a
			</text>
			<text transform="matrix(-0.6335 -0.7737 0.7737 -0.6335 57.9798 190.8499)" class="st0 st1 st3">
				r
			</text>
			<text transform="matrix(-0.5438 -0.8392 0.8392 -0.5438 51.3101 182.6794)" class="st0 st1 st3">
				t
			</text>
			<text transform="matrix(-0.3168 -0.9485 0.9485 -0.3168 40.2098 163.0108)" class="st0 st1 st3">
				s
			</text>
			<text transform="matrix(-0.2028 -0.9792 0.9792 -0.2028 36.4601 151.6994)" class="st0 st1 st3">
				t
			</text>
			<text transform="matrix(-6.982913e-02 -0.9976 0.9976 -6.982913e-02 34.2697 142.1195)" class="st0 st1 st7">
				a
			</text>
			<text transform="matrix(4.309630e-02 -0.9991 0.9991 4.309630e-02 33.42 127.5702)" class="st0 st1 st3">
				r
			</text>
			<text transform="matrix(0.1692 -0.9856 0.9856 0.1692 33.9601 117.0696)" class="st0 st1 st8">
				t
			</text>
			<text transform="matrix(0.4156 -0.9095 0.9095 0.4156 39.2199 95.1203)" class="st0 st1 st3">
				s
			</text>
			<text transform="matrix(0.5219 -0.853 0.853 0.5219 44.2098 84.2695)" class="st0 st1 st10">
				t
			</text>
			<text transform="matrix(0.6283 -0.7779 0.7779 0.6283 49.15 75.7602)" class="st0 st1 st11">
				a
			</text>
			<text transform="matrix(0.722 -0.6919 0.6919 0.722 58.3794 64.4497)" class="st0 st1 st12">
				r
			</text>
			<text transform="matrix(0.7915 -0.6112 0.6112 0.7915 65.9598 57.14)" class="st0 st1 st13">
				t
			</text>
			<text transform="matrix(0.9404 -0.3401 0.3401 0.9404 90.4299 41.67)" class="st0 st1 st14">
				s
			</text>
			<text transform="matrix(0.973 -0.2307 0.2307 0.973 101.6795 37.6095)" class="st0 st1 st15">
				t
			</text>
			<text transform="matrix(0.9937 -0.1123 0.1123 0.9937 111.21 35.11)" class="st0 st1 st3">
				a
			</text>
			<text transform="matrix(1 9.773688e-03 -9.773688e-03 1 125.76 33.58)" class="st0 st1 st3">
				r
			</text>
			<text transform="matrix(0.9939 0.1104 -0.1104 0.9939 136.3398 33.7001)" class="st0 st1 st16">
				t
			</text>
		</g>
		<g id="mainLogo">
			<ellipse class="st17" cx="130.4" cy="128.6" rx="82.2" ry="83.1" />
			<line class="st18" x1="151.8" y1="69.4" x2="134.1" y2="128.3" />
			<path class="st18" d="M175.7,117.6c1,3.2,6.4,22.1-4.6,40.8c-6,10.1-15.2,17.8-26.1,22" />
			<path class="st18" d="M130.9,83.8c-9.2-1.2-18.5,0.4-26.8,4.6c-6.3,3.3-11.7,7.9-16,13.5c-0.4,0.6-1.1,1.5-1.9,2.6
				c-4.4,6.5-8.9,17.9-9,28.9c-0.3,23.4,19.5,39.8,21.1,41.1" />
			<line class="st18" x1="100.6" y1="130.4" x2="111.8" y2="95.3" />
			<line class="st18" x1="160.7" y1="86.3" x2="147.2" y2="132.1" />
			<line class="st18" x1="167.8" y1="122.6" x2="158.3" y2="154" />
			<path class="st19" d="M103.2,150.5c0,0,27.8-18.4,43.3,14.9C146.5,165.4,117,184.9,103.2,150.5z" />
			<ellipse transform="matrix(0.2566 -0.9665 0.9665 0.2566 -60.0765 238.4586)" class="st19" cx="125" cy="158.3" rx="12" ry="11.9" />
			<ellipse class="st20" cx="125.3" cy="158.2" rx="3.6" ry="3.6" />
			<path class="st18" d="M97.5,140.3c-1.9,4.9-2.9,10.1-2.9,15.4c-0.1,5.4-0.2,13.5,5.3,21.1c6.5,9.1,16.4,11.1,18.2,11.5
				c12.9,2.8,22.9-4.8,24.5-6l0.6-0.4c5.7-4.6,9.9-10.8,12.1-17.9" />
			<line class="st18" x1="134.2" y1="73.8" x2="119" y2="125.5" />
			<line class="st21" x1="148.5" y1="160.8" x2="164.9" y2="155.2" />
			<ellipse transform="matrix(0.9423 -0.3346 0.3346 0.9423 -40.3192 59.8356)" class="st22" cx="153.5" cy="146.9" rx="0.5" ry="0.6" />
			<ellipse transform="matrix(0.1024 -0.9947 0.9947 0.1024 -6.9536 277.5588)" class="st22" cx="150.3" cy="142.6" rx="0.6" ry="0.5" />
			<ellipse transform="matrix(0.1024 -0.9947 0.9947 0.1024 -8.3578 262.9722)" class="st22" cx="141.5" cy="136.1" rx="0.6" ry="0.5" />
			<ellipse transform="matrix(0.1024 -0.9947 0.9947 0.1024 -10.4093 255.56)" class="st22" cx="136.4" cy="133.5" rx="0.6" ry="0.5" />
			<ellipse transform="matrix(0.1024 -0.9947 0.9947 0.1024 -13.5344 247.1873)" class="st22" cx="130.2" cy="131.1" rx="0.6" ry="0.5" />
			<ellipse transform="matrix(0.1226 -0.9925 0.9925 0.1226 -12.5187 231.4181)" class="st22" cx="124.6" cy="122.8" rx="0.6" ry="0.5" />
			<ellipse transform="matrix(0.1226 -0.9925 0.9925 0.1226 -10.3885 229.8675)" class="st22" cx="124.8" cy="120.8" rx="0.6" ry="0.5" />
			<ellipse transform="matrix(0.2766 -0.961 0.961 0.2766 -45.4479 201.8628)" class="st22" cx="111.4" cy="131.1" rx="0.6" ry="0.5" />
			<ellipse transform="matrix(0.4075 -0.9132 0.9132 0.4075 -59.8793 162.5015)" class="st22" cx="95.3" cy="127.4" rx="0.6" ry="0.5" />
			<ellipse transform="matrix(0.4075 -0.9132 0.9132 0.4075 -58.693 160.5199)" class="st22" cx="94.4" cy="125.5" rx="0.6" ry="0.5" />
			<ellipse transform="matrix(2.129143e-02 -0.9998 0.9998 2.129143e-02 13.873 284.0058)" class="st22" cx="152" cy="134.9" rx="0.6" ry="0.5" />
			<ellipse transform="matrix(2.129143e-02 -0.9998 0.9998 2.129143e-02 16.9143 284.1094)" class="st22" cx="153.6" cy="133.4" rx="0.6" ry="0.5" />
			<line class="st23" x1="137.8" y1="148.3" x2="150.4" y2="136.6" />
			<line class="st21" x1="122.9" y1="142.2" x2="124.3" y2="124.7" />
			<line class="st21" x1="103.3" y1="145.3" x2="96" y2="129.1" />
			<line class="st21" x1="154.5" y1="151.7" x2="145.8" y2="156.4" />
			<line class="st21" x1="151.8" y1="148.2" x2="143.7" y2="153.9" />
			<line class="st21" x1="148.5" y1="144.5" x2="141.3" y2="151.2" />
			<line class="st21" x1="140.3" y1="138.3" x2="134.8" y2="146.3" />
			<line class="st21" x1="135.4" y1="135.8" x2="131.1" y2="144.4" />
			<line class="st21" x1="129.6" y1="133.7" x2="127.1" y2="143" />
			<ellipse transform="matrix(0.1848 -0.9828 0.9828 0.1848 -32.2962 221.8778)" class="st22" cx="117.6" cy="130.4" rx="0.6" ry="0.5" />
			<line class="st23" x1="117.8" y1="132.4" x2="118.5" y2="142" />
			<line class="st23" x1="111.8" y1="133" x2="113.2" y2="142.5" />
			<ellipse transform="matrix(0.3295 -0.9441 0.9441 0.3295 -55.1209 187.8017)" class="st22" cx="104.7" cy="132.7" rx="0.6" ry="0.5" />
			<line class="st23" x1="105.2" y1="134.4" x2="108.1" y2="143.7" />
			<ellipse transform="matrix(0.1024 -0.9947 0.9947 0.1024 -10.1699 290.7471)" class="st22" cx="156" cy="151" rx="0.6" ry="0.5" />
			<ellipse transform="matrix(0.9567 -0.291 0.291 0.9567 -37.7116 55.3193)" class="st22" cx="167.1" cy="154.4" rx="0.5" ry="0.6" />
			<ellipse transform="matrix(0.9567 -0.291 0.291 0.9567 -37.4242 55.8571)" class="st22" cx="169.1" cy="153.7" rx="0.5" ry="0.6" />
		</g>
	</g>
</svg>
