<svg xmlns="http://www.w3.org/2000/svg" viewBox="0 0 45.34 62.69"><defs><style>.cls-1,.cls-2{fill:none;}.cls-1,.cls-2,.cls-4{stroke:#cd983f;stroke-miterlimit:10;}.cls-1{stroke-width:0.64px;}.cls-2{stroke-width:0.57px;}.cls-3,.cls-4{fill:#cd983f;}.cls-4{stroke-width:0.23px;}</style></defs><title>nav_logo</title><g id="Layer_2" data-name="Layer 2"><g id="หน้า4"><line class="cls-1" x1="33.43" y1="0.09" x2="25.58" y2="26.22"/><path class="cls-1" d="M44.05,21.48A23.46,23.46,0,0,1,42,39.6a23,23,0,0,1-11.61,9.75"/><path class="cls-1" d="M24.18,6.47a21,21,0,0,0-11.9,2,21.35,21.35,0,0,0-7.13,6c-.19.25-.48.64-.82,1.15a25.53,25.53,0,0,0-4,12.83C.2,38.87,9,46.16,9.68,46.73"/><line class="cls-1" x1="10.71" y1="27.17" x2="15.71" y2="11.57"/><line class="cls-1" x1="37.39" y1="7.61" x2="31.41" y2="27.93"/><line class="cls-1" x1="40.54" y1="23.72" x2="36.32" y2="37.65"/><path class="cls-2" d="M11.87,36.09s12.33-8.16,19.21,6.63C31.08,42.72,18,51.35,11.87,36.09Z"/><ellipse class="cls-2" cx="21.54" cy="39.55" rx="5.32" ry="5.29" transform="translate(-22.21 50.22) rotate(-75.13)"/><circle class="cls-3" cx="21.69" cy="39.53" r="1.61"/><path class="cls-1" d="M9.34,31.58A20,20,0,0,0,8,38.4c0,2.4-.08,6,2.36,9.38a13.51,13.51,0,0,0,8.06,5.12,13.75,13.75,0,0,0,10.87-2.65l.25-.2a16.52,16.52,0,0,0,5.36-7.92"/><line class="cls-1" x1="25.66" y1="2.05" x2="18.88" y2="24.98"/><line class="cls-4" x1="31.97" y1="40.65" x2="39.29" y2="38.2"/><ellipse class="cls-3" cx="40.27" cy="37.85" rx="0.24" ry="0.26" transform="translate(-9.27 13.36) rotate(-16.92)"/><ellipse class="cls-3" cx="41.14" cy="37.54" rx="0.24" ry="0.26" transform="translate(-9.14 13.59) rotate(-16.92)"/><ellipse class="cls-3" cx="34.21" cy="34.51" rx="0.24" ry="0.26" transform="translate(-9.58 13.44) rotate(-19.55)"/><ellipse class="cls-3" cx="32.79" cy="32.6" rx="0.26" ry="0.24" transform="translate(-2.99 61.88) rotate(-84.12)"/><ellipse class="cls-3" cx="28.89" cy="29.7" rx="0.26" ry="0.24" transform="translate(-3.61 55.4) rotate(-84.12)"/><ellipse class="cls-3" cx="26.61" cy="28.56" rx="0.26" ry="0.24" transform="translate(-4.53 52.11) rotate(-84.12)"/><ellipse class="cls-3" cx="23.86" cy="27.47" rx="0.26" ry="0.24" transform="translate(-5.91 48.4) rotate(-84.12)"/><ellipse class="cls-3" cx="21.39" cy="23.79" rx="0.26" ry="0.24" transform="translate(-4.85 42.1) rotate(-82.96)"/><ellipse class="cls-3" cx="21.47" cy="22.92" rx="0.26" ry="0.24" transform="translate(-3.91 41.41) rotate(-82.96)"/><ellipse class="cls-3" cx="15.5" cy="27.49" rx="0.26" ry="0.24" transform="translate(-15.2 34.78) rotate(-73.94)"/><ellipse class="cls-3" cx="8.36" cy="25.83" rx="0.26" ry="0.24" transform="translate(-18.64 22.94) rotate(-65.95)"/><ellipse class="cls-3" cx="7.95" cy="24.99" rx="0.26" ry="0.24" transform="translate(-18.11 22.07) rotate(-65.95)"/><ellipse class="cls-3" cx="33.54" cy="29.18" rx="0.26" ry="0.24" transform="translate(3.65 62.09) rotate(-88.78)"/><ellipse class="cls-3" cx="34.23" cy="28.51" rx="0.26" ry="0.24" transform="translate(5 62.13) rotate(-88.78)"/><line class="cls-4" x1="27.24" y1="35.13" x2="32.82" y2="29.94"/><line class="cls-4" x1="20.62" y1="32.4" x2="21.25" y2="24.66"/><line class="cls-4" x1="11.93" y1="33.79" x2="8.67" y2="26.61"/><line class="cls-4" x1="34.66" y1="36.63" x2="30.78" y2="38.73"/><line class="cls-4" x1="33.46" y1="35.07" x2="29.87" y2="37.61"/><line class="cls-4" x1="31.99" y1="33.42" x2="28.78" y2="36.4"/><line class="cls-4" x1="28.34" y1="30.67" x2="25.89" y2="34.23"/><line class="cls-4" x1="26.19" y1="29.54" x2="24.27" y2="33.39"/><line class="cls-4" x1="23.61" y1="28.63" x2="22.48" y2="32.75"/><ellipse class="cls-3" cx="18.27" cy="27.18" rx="0.26" ry="0.24" transform="matrix(0.18, -0.98, 0.98, 0.18, -11.82, 40.11)"/><line class="cls-4" x1="18.37" y1="28.07" x2="18.67" y2="32.32"/><line class="cls-4" x1="15.68" y1="28.32" x2="16.3" y2="32.55"/><ellipse class="cls-3" cx="12.53" cy="28.2" rx="0.26" ry="0.24" transform="translate(-18.23 30.73) rotate(-70.76)"/><line class="cls-4" x1="12.77" y1="28.97" x2="14.04" y2="33.07"/><ellipse class="cls-3" cx="35.33" cy="36.31" rx="0.26" ry="0.24" transform="translate(-4.41 67.73) rotate(-84.12)"/><rect class="cls-3" x="3.94" y="62.49" width="0.62" height="0.15"/><rect class="cls-3" x="3.92" y="57.11" width="0.62" height="0.15"/><rect class="cls-3" x="18.35" y="57.08" width="0.62" height="0.15"/><rect class="cls-3" x="18.36" y="62.5" width="0.62" height="0.15"/><rect class="cls-3" x="23.97" y="57.07" width="0.62" height="0.15"/><rect class="cls-3" x="23.98" y="62.49" width="0.62" height="0.15"/><rect class="cls-3" x="23.27" y="62.49" width="0.62" height="0.15"/><rect class="cls-3" x="19.03" y="62.49" width="0.62" height="0.15"/><rect class="cls-3" x="32.21" y="57.08" width="0.62" height="0.15"/><rect class="cls-3" x="32.24" y="62.49" width="0.62" height="0.15"/><rect class="cls-3" x="32.95" y="62.49" width="0.62" height="0.15"/><rect class="cls-3" x="35.21" y="62.49" width="0.62" height="0.15"/><rect class="cls-3" x="35.81" y="62.49" width="0.62" height="0.15"/><rect class="cls-3" x="37.52" y="62.49" width="0.62" height="0.15"/><rect class="cls-3" x="37.51" y="57.1" width="0.62" height="0.15"/><rect class="cls-3" x="40.33" y="59.7" width="0.62" height="0.15" transform="translate(-19.12 100.41) rotate(-90)"/><rect class="cls-3" x="40.49" y="57.34" width="0.62" height="0.15" transform="translate(-16.62 98.21) rotate(-90)"/><rect class="cls-3" x="40.58" y="62.25" width="0.62" height="0.15" transform="translate(-21.43 103.22) rotate(-90)"/><path class="cls-3" d="M8.41,59.87a3.61,3.61,0,0,1-.18,1.2,2.41,2.41,0,0,1-.53.86,2.19,2.19,0,0,1-.83.53,3.06,3.06,0,0,1-1.08.18H4.25V57.11H5.79a2.85,2.85,0,0,1,1.08.17,2.29,2.29,0,0,1,.83.52,2.48,2.48,0,0,1,.52.88A3.58,3.58,0,0,1,8.41,59.87Zm-.71,0a3.15,3.15,0,0,0-.15-1,1.81,1.81,0,0,0-.4-.71,1.77,1.77,0,0,0-.62-.43,2,2,0,0,0-.75-.14H4.94v4.59h.83A2.06,2.06,0,0,0,6.54,62a1.65,1.65,0,0,0,.61-.43,2.14,2.14,0,0,0,.41-.71A3.12,3.12,0,0,0,7.7,59.88Z"/><path class="cls-3" d="M14.47,59.83A4.11,4.11,0,0,1,14.32,61a2.56,2.56,0,0,1-.44.89,2.12,2.12,0,0,1-.71.59,2.16,2.16,0,0,1-1,.21,2.19,2.19,0,0,1-1-.19,2,2,0,0,1-.74-.57A2.38,2.38,0,0,1,10,61a3.69,3.69,0,0,1-.17-1.14A4.06,4.06,0,0,1,10,58.75a2.65,2.65,0,0,1,.44-.89,2.12,2.12,0,0,1,.72-.58,2.33,2.33,0,0,1,1-.22,2.19,2.19,0,0,1,1,.2,2.07,2.07,0,0,1,.72.56,2.55,2.55,0,0,1,.47.88A4.39,4.39,0,0,1,14.47,59.83Zm-.72,0a4.26,4.26,0,0,0-.11-.9,2.2,2.2,0,0,0-.31-.73,1.66,1.66,0,0,0-.5-.49,1.31,1.31,0,0,0-.69-.17,1.25,1.25,0,0,0-.7.19,1.53,1.53,0,0,0-.49.49,2.33,2.33,0,0,0-.29.74,4.39,4.39,0,0,0-.09.91,4.44,4.44,0,0,0,.11.91,2.3,2.3,0,0,0,.31.73,1.49,1.49,0,0,0,.5.5,1.46,1.46,0,0,0,.71.17,1.26,1.26,0,0,0,.68-.19,1.47,1.47,0,0,0,.49-.5,2.49,2.49,0,0,0,.29-.75A4.32,4.32,0,0,0,13.75,59.84Z"/><path class="cls-3" d="M23.59,62.63V57.8h0l-1.76,4.84h-.66l-1.77-4.83h0v4.83h-.67V57.08h1.06l1.73,4.69h0l1.69-4.7h1.1v5.56Z"/><path class="cls-3" d="M35.49,62.63l-1.31-2.57h-.93v2.57h-.7V57.07h1.74a3.26,3.26,0,0,1,.7.07,1.84,1.84,0,0,1,.59.25,1.43,1.43,0,0,1,.42.46,1.35,1.35,0,0,1,.16.69,1.44,1.44,0,0,1-.12.61,1.35,1.35,0,0,1-.31.43,1.29,1.29,0,0,1-.42.26,1.26,1.26,0,0,1-.45.12l1.41,2.67Zm0-4.06a1,1,0,0,0-.11-.5.87.87,0,0,0-.28-.32,1.13,1.13,0,0,0-.41-.16,2.52,2.52,0,0,0-.48-.05h-.92v2.08h1a1.42,1.42,0,0,0,.92-.27A1,1,0,0,0,35.45,58.57Z"/><path class="cls-3" d="M37.82,62.63V57.1h2.9v.49H38.52v1.93h2.06V60H38.52v2.15h2.31v.5Z"/><path class="cls-3" d="M30.75,59.85A3.82,3.82,0,0,1,30.61,61a2.65,2.65,0,0,1-.44.89,2.15,2.15,0,0,1-.72.59,2.12,2.12,0,0,1-1,.21,2.16,2.16,0,0,1-1-.19,2,2,0,0,1-.74-.57,2.64,2.64,0,0,1-.47-.88,4.27,4.27,0,0,1,0-2.28,2.56,2.56,0,0,1,.44-.89,2,2,0,0,1,.72-.58,2.33,2.33,0,0,1,1-.22,2.12,2.12,0,0,1,1,.2,2,2,0,0,1,.73.56,2.53,2.53,0,0,1,.46.88A3.67,3.67,0,0,1,30.75,59.85Zm-.72,0a3.7,3.7,0,0,0-.11-.9,2.11,2.11,0,0,0-.3-.73,1.59,1.59,0,0,0-.51-.49,1.19,1.19,0,0,0-.68-.17,1.25,1.25,0,0,0-.7.19,1.53,1.53,0,0,0-.49.49A2.33,2.33,0,0,0,27,59a4.39,4.39,0,0,0-.09.91,4.26,4.26,0,0,0,.11.9,2.49,2.49,0,0,0,.3.74,1.49,1.49,0,0,0,.51.49,1.4,1.4,0,0,0,1.39,0,1.41,1.41,0,0,0,.49-.51,2.6,2.6,0,0,0,.29-.74A3.81,3.81,0,0,0,30,59.86Z"/></g></g></svg>