<svg xmlns="http://www.w3.org/2000/svg" xmlns:xlink="http://www.w3.org/1999/xlink" viewBox="0 0 117.39 117.5"><defs><style>.cls-1{fill:url(#radial-gradient);}.cls-2{fill:url(#radial-gradient-2);}.cls-3{fill:url(#radial-gradient-3);}.cls-4{fill:url(#radial-gradient-4);}.cls-5{fill:url(#radial-gradient-5);}.cls-6{fill:url(#radial-gradient-6);}.cls-7{fill:url(#radial-gradient-7);}.cls-8{fill:url(#radial-gradient-8);}.cls-9{fill:url(#radial-gradient-9);}.cls-10{fill:url(#radial-gradient-10);}.cls-11{fill:url(#radial-gradient-11);}.cls-12{fill:url(#radial-gradient-12);}.cls-13{fill:url(#radial-gradient-13);}.cls-14{fill:url(#radial-gradient-14);}.cls-15{fill:url(#radial-gradient-15);}.cls-16{fill:url(#radial-gradient-16);}.cls-17{fill:url(#radial-gradient-17);}.cls-18{fill:url(#radial-gradient-18);}.cls-19{fill:url(#radial-gradient-19);}.cls-20{fill:url(#radial-gradient-20);}.cls-21{fill:url(#radial-gradient-21);}.cls-22{fill:url(#radial-gradient-22);}.cls-23{fill:url(#radial-gradient-23);}.cls-24{fill:url(#radial-gradient-24);}.cls-25{fill:url(#radial-gradient-25);}.cls-26{fill:url(#radial-gradient-26);}.cls-27{fill:url(#radial-gradient-27);}.cls-28{fill:url(#radial-gradient-28);}.cls-29{fill:url(#radial-gradient-29);}.cls-30{fill:url(#radial-gradient-30);}.cls-31{fill:url(#radial-gradient-31);}.cls-32{fill:url(#radial-gradient-32);}.cls-33{fill:url(#radial-gradient-33);}.cls-34{fill:url(#radial-gradient-34);}.cls-35{fill:url(#radial-gradient-35);}.cls-36{fill:url(#radial-gradient-36);}.cls-37{fill:url(#radial-gradient-37);}.cls-38{fill:url(#radial-gradient-38);}.cls-39{fill:url(#radial-gradient-39);}.cls-40{fill:url(#radial-gradient-40);}.cls-41{fill:url(#radial-gradient-41);}.cls-42{fill:url(#radial-gradient-42);}.cls-43{fill:url(#radial-gradient-43);}.cls-44{fill:url(#radial-gradient-44);}.cls-45{fill:url(#radial-gradient-45);}.cls-46{fill:url(#radial-gradient-46);}.cls-47{fill:url(#radial-gradient-47);}.cls-48{fill:url(#radial-gradient-48);}.cls-49{fill:url(#radial-gradient-49);}.cls-50{fill:url(#radial-gradient-50);}.cls-51{fill:url(#radial-gradient-51);}.cls-52{fill:url(#radial-gradient-52);}.cls-53{fill:url(#radial-gradient-53);}.cls-54{fill:url(#radial-gradient-54);}.cls-55{fill:url(#radial-gradient-55);}.cls-56{fill:url(#radial-gradient-56);}.cls-57{fill:url(#radial-gradient-57);}.cls-58{fill:url(#radial-gradient-58);}.cls-59{fill:url(#radial-gradient-59);}.cls-60{fill:url(#radial-gradient-60);}.cls-61{fill:url(#radial-gradient-61);}.cls-62{fill:url(#radial-gradient-62);}.cls-63{fill:url(#radial-gradient-63);}.cls-64{fill:url(#radial-gradient-64);}.cls-65{fill:url(#radial-gradient-65);}.cls-66{fill:url(#radial-gradient-66);}.cls-67{fill:url(#radial-gradient-67);}.cls-68{fill:url(#radial-gradient-68);}.cls-69{fill:url(#radial-gradient-69);}.cls-70{fill:url(#radial-gradient-70);}.cls-71{fill:url(#radial-gradient-71);}.cls-72{fill:url(#radial-gradient-72);}.cls-73{fill:url(#radial-gradient-73);}.cls-74{fill:url(#radial-gradient-74);}.cls-75{fill:url(#radial-gradient-75);}.cls-76{fill:url(#radial-gradient-76);}.cls-77{fill:#c59e6e;}.cls-78,.cls-79{fill:none;}.cls-78,.cls-79,.cls-80,.cls-81,.cls-83,.cls-84{stroke:#fff;stroke-miterlimit:10;}.cls-78{stroke-width:0.88px;}.cls-79{stroke-width:0.78px;}.cls-80,.cls-82{fill:#fff;}.cls-80,.cls-83{stroke-width:0.36px;}.cls-81{fill:#cd983f;}.cls-81,.cls-84{stroke-width:0.31px;}</style><radialGradient id="radial-gradient" cx="46.78" cy="370.65" r="20.95" gradientTransform="translate(379.69 273.79) rotate(135)" gradientUnits="userSpaceOnUse"><stop offset="0" stop-color="#141414"/><stop offset="0.16" stop-color="#171716"/><stop offset="0.3" stop-color="#22201c"/><stop offset="0.43" stop-color="#342e25"/><stop offset="0.56" stop-color="#4d4333"/><stop offset="0.69" stop-color="#6e5e44"/><stop offset="0.81" stop-color="#967f5a"/><stop offset="0.93" stop-color="#c4a673"/><stop offset="1" stop-color="#e5c185"/></radialGradient><radialGradient id="radial-gradient-2" cx="76.31" cy="35.22" r="20.95" gradientTransform="translate(36.51 -21.29) rotate(29.5)" xlink:href="#radial-gradient"/><radialGradient id="radial-gradient-3" cx="378.42" cy="279.69" r="20.95" gradientTransform="translate(544.42 -58.9) rotate(130.25)" xlink:href="#radial-gradient"/><radialGradient id="radial-gradient-4" cx="79.94" cy="38.45" r="20.95" gradientTransform="translate(36.51 -21.29) rotate(29.5)" xlink:href="#radial-gradient"/><radialGradient id="radial-gradient-5" cx="1008.65" cy="19.4" r="20.95" gradientTransform="matrix(-0.65, 0.76, -0.76, -0.65, 754.41, -703.16)" xlink:href="#radial-gradient"/><radialGradient id="radial-gradient-6" cx="82.99" cy="42.24" r="20.94" gradientTransform="translate(36.51 -21.29) rotate(29.5)" xlink:href="#radial-gradient"/><radialGradient id="radial-gradient-7" cx="1586.88" cy="-340.94" r="20.95" gradientTransform="translate(1519.57 823.79) rotate(-139.75)" xlink:href="#radial-gradient"/><radialGradient id="radial-gradient-8" cx="85.37" cy="46.47" r="20.91" gradientTransform="translate(36.51 -21.29) rotate(29.5)" xlink:href="#radial-gradient"/><radialGradient id="radial-gradient-9" cx="2099.27" cy="-792.34" r="20.95" gradientTransform="translate(2201.69 815.53) rotate(-139.74)" xlink:href="#radial-gradient"/><radialGradient id="radial-gradient-10" cx="87.02" cy="51.04" r="20.85" gradientTransform="translate(36.51 -21.29) rotate(29.5)" xlink:href="#radial-gradient"/><radialGradient id="radial-gradient-11" cx="2528.46" cy="-1321.87" r="20.95" gradientTransform="matrix(-0.76, -0.65, 0.65, -0.76, 2870.5, 692.9)" xlink:href="#radial-gradient"/><radialGradient id="radial-gradient-12" cx="87.9" cy="55.82" r="20.79" gradientTransform="translate(36.51 -21.29) rotate(29.5)" xlink:href="#radial-gradient"/><radialGradient id="radial-gradient-13" cx="2864.85" cy="-1914.25" r="20.95" gradientTransform="translate(3508.03 462.54) rotate(-139.75)" xlink:href="#radial-gradient"/><radialGradient id="radial-gradient-14" cx="87.97" cy="60.68" r="20.78" gradientTransform="translate(36.51 -21.29) rotate(29.5)" xlink:href="#radial-gradient"/><radialGradient id="radial-gradient-15" cx="3099.17" cy="-2553.98" r="20.95" gradientTransform="translate(4097.46 129.91) rotate(-139.75)" xlink:href="#radial-gradient"/><radialGradient id="radial-gradient-16" cx="87.24" cy="65.49" r="20.84" gradientTransform="translate(36.51 -21.29) rotate(29.5)" xlink:href="#radial-gradient"/><radialGradient id="radial-gradient-17" cx="3225.39" cy="-3224.83" r="20.95" gradientTransform="matrix(-0.76, -0.65, 0.65, -0.76, 4623.87, -296.68)" xlink:href="#radial-gradient"/><radialGradient id="radial-gradient-18" cx="85.73" cy="70.1" r="20.9" gradientTransform="translate(36.51 -21.29) rotate(29.5)" xlink:href="#radial-gradient"/><radialGradient id="radial-gradient-19" cx="3238.65" cy="-3906.21" r="20.95" gradientTransform="translate(5070.32 -805.24) rotate(-139.75)" xlink:href="#radial-gradient"/><radialGradient id="radial-gradient-20" cx="83.47" cy="74.41" r="20.94" gradientTransform="translate(36.51 -21.29) rotate(29.5)" xlink:href="#radial-gradient"/><radialGradient id="radial-gradient-21" cx="3139.19" cy="-4580.26" r="20.95" gradientTransform="translate(5425.5 -1381.78) rotate(-139.75)" xlink:href="#radial-gradient"/><radialGradient id="radial-gradient-22" cx="80.54" cy="78.28" r="20.95" gradientTransform="translate(36.51 -21.29) rotate(29.5)" xlink:href="#radial-gradient"/><radialGradient id="radial-gradient-23" cx="2929.42" cy="-5229.15" r="20.95" gradientTransform="matrix(-0.76, -0.65, 0.65, -0.76, 5680.16, -2011.09)" xlink:href="#radial-gradient"/><radialGradient id="radial-gradient-24" cx="77.01" cy="81.62" r="20.95" gradientTransform="translate(36.51 -21.29) rotate(29.5)" xlink:href="#radial-gradient"/><radialGradient id="radial-gradient-25" cx="2615.81" cy="-5834.45" r="20.95" gradientTransform="translate(5827.04 -2674.96) rotate(-139.75)" xlink:href="#radial-gradient"/><radialGradient id="radial-gradient-26" cx="72.97" cy="84.33" r="20.93" gradientTransform="translate(36.51 -21.29) rotate(29.5)" xlink:href="#radial-gradient"/><radialGradient id="radial-gradient-27" cx="68.55" cy="86.33" r="20.88" gradientTransform="translate(36.51 -21.29) rotate(29.5)" xlink:href="#radial-gradient"/><radialGradient id="radial-gradient-28" cx="1712.32" cy="-6850.92" r="20.95" gradientTransform="matrix(0.65, -0.76, 0.76, 0.65, 4173.79, 5820.96)" xlink:href="#radial-gradient"/><radialGradient id="radial-gradient-29" cx="63.85" cy="87.58" r="20.82" gradientTransform="translate(36.51 -21.29) rotate(29.5)" xlink:href="#radial-gradient"/><radialGradient id="radial-gradient-30" cx="61.44" cy="87.91" r="20.79" gradientTransform="translate(36.51 -21.29) rotate(29.5)" xlink:href="#radial-gradient"/><radialGradient id="radial-gradient-31" cx="59.01" cy="88.04" r="20.76" gradientTransform="translate(36.51 -21.29) rotate(29.5)" xlink:href="#radial-gradient"/><radialGradient id="radial-gradient-32" cx="56.58" cy="87.96" r="20.78" gradientTransform="translate(36.51 -21.29) rotate(29.5)" xlink:href="#radial-gradient"/><radialGradient id="radial-gradient-33" cx="54.17" cy="87.69" r="20.81" gradientTransform="translate(36.51 -21.29) rotate(29.5)" xlink:href="#radial-gradient"/><radialGradient id="radial-gradient-34" cx="51.78" cy="87.21" r="20.85" gradientTransform="translate(36.51 -21.29) rotate(29.5)" xlink:href="#radial-gradient"/><radialGradient id="radial-gradient-35" cx="49.44" cy="86.55" r="20.87" gradientTransform="translate(36.51 -21.29) rotate(29.5)" xlink:href="#radial-gradient"/><radialGradient id="radial-gradient-36" cx="-68.16" cy="99.33" r="19.48" gradientTransform="matrix(0.93, 0.53, -0.53, 0.93, 151.3, 20.17)" xlink:href="#radial-gradient"/><radialGradient id="radial-gradient-37" cx="44.97" cy="84.64" r="20.92" gradientTransform="translate(36.51 -21.29) rotate(29.5)" xlink:href="#radial-gradient"/><radialGradient id="radial-gradient-38" cx="42.87" cy="83.41" r="20.94" gradientTransform="translate(36.51 -21.29) rotate(29.5)" xlink:href="#radial-gradient"/><radialGradient id="radial-gradient-39" cx="40.88" cy="82.02" r="20.95" gradientTransform="translate(36.51 -21.29) rotate(29.5)" xlink:href="#radial-gradient"/><radialGradient id="radial-gradient-40" cx="-2151.71" cy="-7558.07" r="20.95" gradientTransform="translate(7189.1 3310.13) rotate(-49.74)" xlink:href="#radial-gradient"/><radialGradient id="radial-gradient-41" cx="37.28" cy="78.76" r="20.95" gradientTransform="translate(36.51 -21.29) rotate(29.5)" xlink:href="#radial-gradient"/><radialGradient id="radial-gradient-42" cx="-2780.1" cy="-7293.46" r="20.95" gradientTransform="matrix(0.65, -0.76, 0.76, 0.65, 7392.79, 2653.86)" xlink:href="#radial-gradient"/><radialGradient id="radial-gradient-43" cx="34.26" cy="74.95" r="20.94" gradientTransform="translate(36.51 -21.29) rotate(29.5)" xlink:href="#radial-gradient"/><radialGradient id="radial-gradient-44" cx="-3355.83" cy="-6927.8" r="20.95" gradientTransform="translate(-1883.54 7514.38) rotate(40.23)" xlink:href="#radial-gradient"/><radialGradient id="radial-gradient-45" cx="31.91" cy="70.7" r="20.9" gradientTransform="translate(36.51 -21.29) rotate(29.5)" xlink:href="#radial-gradient"/><radialGradient id="radial-gradient-46" cx="-3863.68" cy="-6472.95" r="20.95" gradientTransform="translate(-1202.24 7490.39) rotate(40.24)" xlink:href="#radial-gradient"/><radialGradient id="radial-gradient-47" cx="30.3" cy="66.12" r="20.85" gradientTransform="translate(36.51 -21.29) rotate(29.5)" xlink:href="#radial-gradient"/><radialGradient id="radial-gradient-48" cx="-4289.7" cy="-5940.28" r="20.95" gradientTransform="matrix(0.76, 0.65, -0.65, 0.76, -532.04, 7354.41)" xlink:href="#radial-gradient"/><radialGradient id="radial-gradient-49" cx="29.46" cy="61.33" r="20.79" gradientTransform="translate(36.51 -21.29) rotate(29.5)" xlink:href="#radial-gradient"/><radialGradient id="radial-gradient-50" cx="-4621.67" cy="-5344.92" r="20.95" gradientTransform="translate(106.44 7110.07) rotate(40.25)" xlink:href="#radial-gradient"/><radialGradient id="radial-gradient-51" cx="29.43" cy="56.47" r="20.78" gradientTransform="translate(36.51 -21.29) rotate(29.5)" xlink:href="#radial-gradient"/><radialGradient id="radial-gradient-52" cx="-4850.5" cy="-4702.68" r="20.95" gradientTransform="matrix(0.76, 0.65, -0.65, 0.76, 699.07, 6763.42)" xlink:href="#radial-gradient"/><radialGradient id="radial-gradient-53" cx="30.19" cy="51.67" r="20.85" gradientTransform="translate(36.51 -21.29) rotate(29.5)" xlink:href="#radial-gradient"/><radialGradient id="radial-gradient-54" cx="-4970.65" cy="-4031.45" r="20.95" gradientTransform="translate(1227.84 6325.24) rotate(40.25)" xlink:href="#radial-gradient"/><radialGradient id="radial-gradient-55" cx="31.74" cy="47.07" r="20.9" gradientTransform="translate(36.51 -21.29) rotate(29.5)" xlink:href="#radial-gradient"/><radialGradient id="radial-gradient-56" cx="-4978.34" cy="-3350.11" r="20.95" gradientTransform="matrix(0.76, 0.65, -0.65, 0.76, 1677.7, 5807.59)" xlink:href="#radial-gradient"/><radialGradient id="radial-gradient-57" cx="34.03" cy="42.78" r="20.94" gradientTransform="translate(36.51 -21.29) rotate(29.5)" xlink:href="#radial-gradient"/><radialGradient id="radial-gradient-58" cx="-4873.42" cy="-2675.81" r="20.95" gradientTransform="matrix(0.76, 0.65, -0.65, 0.76, 2037.71, 5222.54)" xlink:href="#radial-gradient"/><radialGradient id="radial-gradient-59" cx="36.99" cy="38.93" r="20.95" gradientTransform="translate(36.51 -21.29) rotate(29.5)" xlink:href="#radial-gradient"/><radialGradient id="radial-gradient-60" cx="-4658.77" cy="-2028.96" r="20.95" gradientTransform="translate(2296.42 4588.86) rotate(40.25)" xlink:href="#radial-gradient"/><radialGradient id="radial-gradient-61" cx="40.55" cy="35.62" r="20.95" gradientTransform="translate(36.51 -21.29) rotate(29.5)" xlink:href="#radial-gradient"/><radialGradient id="radial-gradient-62" cx="42.53" cy="34.2" r="20.94" gradientTransform="translate(36.51 -21.29) rotate(29.5)" xlink:href="#radial-gradient"/><radialGradient id="radial-gradient-63" cx="44.61" cy="32.94" r="20.92" gradientTransform="translate(36.51 -21.29) rotate(29.5)" xlink:href="#radial-gradient"/><radialGradient id="radial-gradient-64" cx="-58.51" cy="51.7" r="19.48" gradientTransform="matrix(0.93, 0.53, -0.53, 0.94, 143.43, 11.62)" xlink:href="#radial-gradient"/><radialGradient id="radial-gradient-65" cx="49.05" cy="30.97" r="20.88" gradientTransform="translate(36.51 -21.29) rotate(29.5)" xlink:href="#radial-gradient"/><radialGradient id="radial-gradient-66" cx="51.38" cy="30.27" r="20.85" gradientTransform="translate(36.51 -21.29) rotate(29.5)" xlink:href="#radial-gradient"/><radialGradient id="radial-gradient-67" cx="53.76" cy="29.76" r="20.82" gradientTransform="translate(36.51 -21.29) rotate(29.5)" xlink:href="#radial-gradient"/><radialGradient id="radial-gradient-68" cx="56.17" cy="29.45" r="20.79" gradientTransform="translate(36.51 -21.29) rotate(29.5)" xlink:href="#radial-gradient"/><radialGradient id="radial-gradient-69" cx="58.6" cy="29.34" r="20.75" gradientTransform="translate(36.51 -21.29) rotate(29.5)" xlink:href="#radial-gradient"/><radialGradient id="radial-gradient-70" cx="61.03" cy="29.44" r="20.78" gradientTransform="translate(36.51 -21.29) rotate(29.5)" xlink:href="#radial-gradient"/><radialGradient id="radial-gradient-71" cx="63.44" cy="29.73" r="20.82" gradientTransform="translate(36.51 -21.29) rotate(29.5)" xlink:href="#radial-gradient"/><radialGradient id="radial-gradient-72" cx="65.82" cy="30.22" r="20.85" gradientTransform="translate(36.51 -21.29) rotate(29.5)" xlink:href="#radial-gradient"/><radialGradient id="radial-gradient-73" cx="68.15" cy="30.91" r="20.88" gradientTransform="translate(36.51 -21.29) rotate(29.5)" xlink:href="#radial-gradient"/><radialGradient id="radial-gradient-74" cx="-61.52" cy="51.72" r="19.48" gradientTransform="matrix(0.94, 0.53, -0.53, 0.94, 167.84, 25.27)" xlink:href="#radial-gradient"/><radialGradient id="radial-gradient-75" cx="72.61" cy="32.86" r="20.92" gradientTransform="translate(36.51 -21.29) rotate(29.5)" xlink:href="#radial-gradient"/><radialGradient id="radial-gradient-76" cx="53.43" cy="673.21" r="20.79" gradientTransform="matrix(0.98, 0.18, -0.16, 0.88, 113.49, -514.06)" xlink:href="#radial-gradient"/></defs><title>next-btn</title><g id="Layer_2" data-name="Layer 2"><g id="หน้า7-เพศ_" data-name="หน้า7-เพศ?"><rect class="cls-1" x="55.17" y="44.47" width="58.69" height="0.58" transform="translate(-11.12 45.51) rotate(-28.36)"/><path class="cls-2" d="M58.81,59l-.23-.53,3.52-1.54.23.53ZM63.2,57,63,56.51l.71-.31.23.53Zm1.24-.54L64.21,56l3.51-1.54L68,55Zm4.39-1.92-.23-.53.7-.31.23.53ZM70.06,54l-.23-.53L73.35,52l.23.52Zm4.4-1.92-.23-.53.7-.31.23.53Zm1.23-.54-.23-.53L79,49.52l.23.53Zm4.39-1.92-.23-.53.71-.3.23.52Zm1.23-.54-.23-.52,3.52-1.54.23.53Zm4.4-1.92-.23-.52.7-.31.23.53Zm1.23-.53-.23-.53,3.51-1.54.24.53Zm4.39-1.93-.23-.52.71-.31.23.53Zm1.24-.53-.24-.53,3.52-1.54.23.53ZM97,42.29l-.23-.53.7-.31.23.53Zm1.23-.54L98,41.22l3.52-1.53.23.52Zm4.4-1.92-.23-.53.7-.31.23.53Zm1.23-.54-.23-.53,3.51-1.53.23.52Zm4.39-1.92-.23-.53.7-.3.24.52Zm1.23-.54-.23-.52,3.15-1.38.23.53Z"/><rect class="cls-3" x="57.12" y="48.92" width="58.69" height="0.58" transform="matrix(0.95, -0.32, 0.32, 0.95, -11.26, 30.58)"/><path class="cls-4" d="M58.76,59l-.14-.56,3.73-.93.14.56Zm4.66-1.17-.14-.56.74-.18.14.56Zm1.3-.32-.14-.56L68.3,56l.14.56Zm4.65-1.17-.14-.56.74-.19.15.56Zm1.3-.33-.14-.56,3.72-.93.14.55Zm4.66-1.17-.14-.56.74-.18.14.55Zm1.3-.33-.14-.55L80.21,53l.14.56Zm4.65-1.17-.14-.55.74-.19.14.56Zm1.3-.32-.14-.56,3.72-.94.14.56Zm4.65-1.17-.14-.56.75-.19.14.56Zm1.31-.33-.14-.56L92.12,50l.14.56Zm4.65-1.17-.14-.56.74-.18.14.55Zm1.3-.33-.14-.55,3.72-.94.14.56Zm4.65-1.16L99,48.27l.75-.19.14.56Zm1.31-.33-.14-.56L104,47l.14.55Zm4.65-1.17-.14-.56.74-.19.14.56Zm1.3-.33-.14-.56,3.72-.93.14.56Zm4.65-1.17-.14-.55.75-.19.14.56Zm1.3-.32-.14-.56,3.34-.84.14.56Z"/><rect class="cls-5" x="58.3" y="53.63" width="58.69" height="0.58" transform="matrix(0.99, -0.16, 0.16, 0.99, -7.61, 14.99)"/><path class="cls-6" d="M58.72,59l0-.57,3.83-.31,0,.57Zm4.78-.39,0-.57.77-.06,0,.57Zm1.34-.1,0-.58,3.83-.31,0,.58Zm4.78-.39-.05-.57.77-.06,0,.57ZM71,58l0-.57,3.83-.31,0,.57Zm4.78-.38,0-.58.77-.06,0,.58Zm1.34-.11,0-.57,3.83-.31,0,.57Zm4.78-.39,0-.57.77-.06,0,.57ZM83.2,57l0-.58L87,56.12l0,.58ZM88,56.62l0-.57L88.7,56l0,.57Zm1.34-.11,0-.57,3.82-.31,0,.58Zm4.78-.38,0-.58.77-.06,0,.58ZM95.44,56l0-.57,3.82-.31.05.57Zm4.78-.38,0-.58.77-.06,0,.57Zm1.34-.11,0-.58,3.82-.3,0,.57Zm4.78-.39,0-.57.77-.06,0,.57Zm1.33-.11,0-.57,3.82-.31,0,.58Zm4.79-.38,0-.57.76-.07,0,.58Zm1.33-.11,0-.57,3.43-.28,0,.57Z"/><rect class="cls-7" x="87.75" y="29.42" width="0.58" height="58.69" transform="translate(29.05 146.66) rotate(-89.85)"/><path class="cls-8" d="M58.67,59l0-.57,3.82.32,0,.58Zm4.78.41,0-.58.76.07-.05.57Zm1.34.11,0-.57,3.82.33,0,.57Zm4.78.41.05-.57.76.06,0,.58ZM70.9,60l0-.58,3.83.33,0,.57Zm4.78.41,0-.58.77.07,0,.57Zm1.34.11,0-.57,3.82.32,0,.58ZM81.8,61l0-.57.76.06,0,.57Zm1.34.11,0-.57,3.82.33L87,61.4Zm4.78.41,0-.57.76.06,0,.58Zm1.34.12,0-.58,3.83.33,0,.57ZM94,62l0-.58.77.07,0,.57Zm1.34.11,0-.57,3.83.32,0,.58Zm4.78.41,0-.57L101,62l0,.57Zm1.34.11.05-.57,3.82.33,0,.57Zm4.78.41,0-.57.76.06,0,.58Zm1.34.12,0-.58,3.82.33,0,.57Zm4.78.41,0-.58.76.07,0,.57Zm1.33.11,0-.57,3.43.29,0,.57Z"/><rect class="cls-9" x="87.34" y="34.26" width="0.58" height="58.69" transform="translate(10.25 139.35) rotate(-80.36)"/><path class="cls-10" d="M58.62,59l.15-.56,3.71,1-.14.55Zm4.65,1.19.14-.55.75.19-.15.55Zm1.3.34.14-.56,3.72,1-.14.56Zm4.65,1.19.14-.56.74.19-.14.56Zm1.3.33.14-.55,3.72,1-.15.56Zm4.64,1.19.15-.55.74.19-.14.56Zm1.3.34.15-.56,3.71.95-.14.56Zm4.65,1.19.14-.56.75.19-.15.56Zm1.3.33.14-.55,3.72,1-.14.56Zm4.65,1.2.14-.56.74.19-.14.56Zm1.3.33L88.5,66l3.72,1-.15.55ZM93,67.79l.15-.56.74.19-.14.56Zm1.3.34.15-.56,3.71,1-.14.56ZM99,69.32l.14-.56.75.19-.15.56Zm1.3.33.14-.56,3.72,1-.14.55Zm4.65,1.19.14-.55.74.19-.14.55Zm1.3.34.14-.56,3.72.95-.14.56Zm4.64,1.19.15-.56.74.19-.14.56Zm1.31.33.14-.56,3.33.86-.14.56Z"/><rect class="cls-11" x="86.13" y="38.97" width="0.58" height="58.69" transform="translate(-6.46 127.55) rotate(-70.85)"/><path class="cls-12" d="M58.58,59l.23-.53L62.32,60l-.23.53ZM63,60.9l.24-.53.7.31-.23.53Zm1.23.54.23-.52,3.51,1.55L67.7,63Zm4.39,1.94.23-.52.7.31-.23.52Zm1.23.55L70,63.4,73.55,65l-.24.52Zm4.38,1.94.23-.53.71.31-.24.53Zm1.23.54.23-.52,3.51,1.55-.23.53Zm4.38,2,.24-.53.7.31-.23.53ZM81,68.9l.24-.53,3.5,1.56-.23.52Zm4.39,1.94.23-.52.7.31-.23.52Zm1.23.55.23-.53,3.51,1.55-.24.53ZM91,73.33l.23-.53.71.31-.24.53Zm1.23.54.23-.52L96,74.9l-.23.53Zm4.39,1.94.23-.52.7.31-.23.52Zm1.22.55.24-.53,3.51,1.56-.24.52Zm4.39,1.94.23-.53.7.31-.23.53Zm1.23.54.23-.52,3.51,1.55-.23.53Zm4.38,2,.24-.53.7.31-.24.53Zm1.23.54.23-.53,3.15,1.4-.23.52Z"/><rect class="cls-13" x="84.16" y="43.41" width="0.58" height="58.69" transform="translate(-19.88 112) rotate(-61.36)"/><path class="cls-14" d="M107.55,91.23l-2.88-1.89.32-.48,2.87,1.89ZM104.19,89l-.64-.42.32-.48.64.42Zm-1.44-1L99.55,86l.31-.48,3.21,2.11Zm-3.68-2.43-.64-.42.31-.48.64.42Zm-1.44-1-3.21-2.11.32-.48,3.2,2.11Zm-3.69-2.43-.64-.42.32-.48.64.42Zm-1.44-1L89.3,79.2l.31-.48,3.21,2.11Zm-3.69-2.42-.64-.43.32-.48.64.42Zm-1.44-1-3.2-2.12.32-.48,3.2,2.11Zm-3.68-2.43-.64-.42.31-.49L84,75Zm-1.44-1L79,72.45l.32-.48,3.2,2.11Zm-3.69-2.43-.64-.42.32-.48.64.42Zm-1.44-.95-3.2-2.11.31-.48,3.21,2.11Zm-3.68-2.43-.65-.42.32-.48.64.42ZM72,67.8l-3.2-2.11.32-.48,3.2,2.11Zm-3.68-2.43L67.67,65l.31-.48.64.42Zm-1.44-1-3.21-2.11.32-.48,3.2,2.11ZM63.18,62l-.64-.42.32-.48.64.42Zm-1.44-1-3.2-2.11.31-.48,3.21,2.11Z"/><rect class="cls-15" x="81.49" y="47.47" width="0.58" height="58.69" transform="translate(-29.14 93.71) rotate(-51.87)"/><path class="cls-16" d="M101.51,98.84,99,96.5l.39-.42,2.52,2.34Zm-2.94-2.73L98,95.59l.4-.42.56.52ZM97.3,94.94l-2.81-2.61.39-.43,2.81,2.62Zm-3.23-3-.57-.52.4-.42.56.52ZM92.8,90.76,90,88.15l.39-.42,2.81,2.61Zm-3.23-3L89,87.23l.39-.42.56.52ZM88.3,86.58,85.49,84l.39-.42,2.81,2.61Zm-3.23-3-.56-.52.39-.43.56.53ZM83.8,82.4,81,79.79l.39-.42L84.2,82Zm-3.23-3L80,78.88l.39-.42L81,79Zm-1.26-1.17-2.82-2.62.4-.42L79.7,77.8Zm-3.24-3-.56-.52.39-.42.56.52Zm-1.26-1.17L72,71.44l.4-.42,2.81,2.61Zm-3.24-3L71,70.52l.39-.42.56.52Zm-1.26-1.18L67.5,67.26l.39-.42,2.81,2.61Zm-3.24-3-.56-.52.39-.43.57.53Zm-1.26-1.18L63,63.08l.39-.42,2.81,2.61Zm-3.23-3L62,62.17l.39-.42.57.52Zm-1.27-1.18L58.5,58.9l.39-.42,2.81,2.61Z"/><rect class="cls-17" x="78.18" y="51.03" width="0.58" height="58.69" transform="translate(-33.67 73.88) rotate(-42.37)"/><path class="cls-18" d="M94.3,105.36l-2.1-2.73.45-.35,2.1,2.73Zm-2.45-3.18-.47-.61.45-.35.47.61Zm-1.06-1.37-2.34-3,.45-.35,2.35,3ZM88.1,97.32l-.47-.61.45-.35.47.6ZM87,96l-2.34-3,.46-.35,2.34,3Zm-2.69-3.5-.47-.61.46-.35.47.61Zm-1-1.37-2.35-3,.46-.36,2.34,3Zm-2.7-3.49L80.13,87l.46-.35.47.61Zm-1-1.37-2.34-3,.45-.35,2.34,3Zm-2.7-3.49-.46-.61.45-.35.47.61Zm-1-1.37-2.34-3,.45-.35,2.35,3Zm-2.69-3.5-.47-.6.45-.36.47.61ZM72.05,76.5l-2.34-3,.46-.35,2.34,3ZM69.36,73l-.47-.61.46-.35.46.61ZM68.3,71.63l-2.34-3,.46-.35,2.34,3Zm-2.69-3.49-.47-.61.46-.35.47.61Zm-1-1.37-2.35-3,.46-.35,2.34,3Zm-2.7-3.49-.47-.61.46-.35.47.6Zm-1-1.37-2.34-3,.45-.35,2.34,3Z"/><rect class="cls-19" x="74.34" y="53.99" width="0.58" height="58.69" transform="translate(-33.29 53.85) rotate(-32.87)"/><path class="cls-20" d="M86.11,110.59l-1.62-3,.5-.27,1.63,3Zm-1.9-3.54-.36-.67.51-.28.36.68Zm-.81-1.52-1.81-3.38.51-.28,1.81,3.39Zm-2.08-3.89L81,101l.51-.27.36.68Zm-.81-1.53L78.7,96.73l.51-.27L81,99.84Zm-2.08-3.89-.36-.67.5-.27.36.67Zm-.82-1.52L75.8,91.32l.51-.28,1.81,3.39Zm-2.08-3.89-.36-.68.51-.27.36.68Zm-.81-1.52L72.91,85.9l.51-.27L75.23,89Zm-2.08-3.9-.36-.67.51-.27.36.67Zm-.81-1.52L70,80.49l.5-.27,1.81,3.38ZM69.75,80l-.37-.68.51-.27.36.68Zm-.82-1.52-1.81-3.39.51-.27,1.81,3.39Zm-2.08-3.9-.36-.67.51-.27.36.67ZM66,73l-1.81-3.38.51-.27,1.8,3.38ZM64,69.15l-.36-.68.5-.27.36.68Zm-.82-1.52-1.81-3.39.51-.27,1.81,3.39Zm-2.08-3.89-.36-.68.51-.27.36.67Zm-.81-1.53-1.81-3.38.51-.27,1.81,3.38Z"/><rect class="cls-21" x="70.05" y="56.28" width="0.58" height="58.69" transform="translate(-28.2 34.93) rotate(-23.37)"/><path class="cls-22" d="M77.17,114.41l-1.1-3.26.54-.19,1.1,3.26Zm-1.28-3.81-.25-.73.55-.18.24.73ZM75.33,109l-1.22-3.63.54-.19,1.23,3.64Zm-1.41-4.18-.24-.72.55-.19.24.73Zm-.55-1.63-1.22-3.64.54-.18L73.92,103ZM72,99l-.24-.72.54-.19.25.73Zm-.55-1.63-1.22-3.64.54-.18L72,97.14ZM70,93.15l-.24-.73.54-.18.25.72Zm-.55-1.64-1.22-3.64.54-.18L70,91.33ZM68,87.33l-.24-.73.54-.18.25.72Zm-.55-1.64-1.23-3.63.55-.19L68,85.51Zm-1.41-4.18-.24-.73.54-.18.25.73Zm-.55-1.64L64.3,76.24l.55-.19,1.23,3.64Zm-1.41-4.18L63.88,75l.54-.19.25.73Zm-.55-1.63-1.23-3.64.55-.18,1.22,3.63Zm-1.41-4.18-.25-.73.55-.19.24.73Zm-.55-1.64L60.38,64.6l.55-.18,1.22,3.63ZM60.2,64.06,60,63.33l.55-.18.24.72Zm-.55-1.64-1.23-3.64L59,58.6l1.22,3.64Z"/><rect class="cls-23" x="65.44" y="57.84" width="0.58" height="58.69" transform="translate(-18.99 18.31) rotate(-13.88)"/><path class="cls-24" d="M67.72,116.69l-.54-3.4.56-.09.55,3.4Zm-.64-4L67,112l.57-.09.12.75ZM66.81,111l-.61-3.79.57-.09.61,3.79Zm-.7-4.36-.12-.75.57-.09.12.75Zm-.27-1.7-.61-3.79.57-.09.6,3.79Zm-.7-4.36L65,99.84l.57-.09.12.76Zm-.28-1.7-.61-3.79.57-.09.61,3.79Zm-.7-4.36L64,93.78l.57-.09.12.76Zm-.27-1.7-.61-3.79.57-.09.61,3.78Zm-.7-4.36-.12-.76.57-.09.12.76Zm-.28-1.71L62.31,83l.56-.1.61,3.79Zm-.7-4.35-.12-.76.57-.09.12.76Zm-.27-1.71-.61-3.79.57-.09.61,3.79Zm-.7-4.35-.12-.76.57-.09.12.75ZM61,74.65l-.61-3.79.57-.09.61,3.79Zm-.7-4.36-.12-.75.56-.1.12.76ZM60,68.59l-.61-3.79.57-.09.61,3.79Zm-.7-4.36-.12-.76.57-.09.12.76ZM59,62.53l-.61-3.79.57-.09.61,3.79Z"/><rect class="cls-25" x="60.65" y="58.61" width="0.58" height="58.69" transform="translate(-6.54 4.91) rotate(-4.38)"/><path class="cls-26" d="M58,117.38l0-3.43h.58l0,3.44Zm0-4v-.77h.57v.76Zm0-1.73,0-3.83h.58l0,3.84Zm0-4.41v-.77h.57v.76Zm0-1.73,0-3.83h.57l0,3.84Zm0-4.41v-.77h.57v.76Zm0-1.73,0-3.83h.57l0,3.84Zm0-4.41v-.77h.57V95Zm0-1.73,0-3.83h.57l0,3.84Zm0-4.41V88h.57v.77Zm0-1.72,0-3.84h.57l0,3.84Zm0-4.42v-.76h.57v.77Zm0-1.72,0-3.84h.57l0,3.84Zm0-4.42v-.76h.57v.77Zm0-1.72,0-3.84h.57l0,3.84Zm0-4.42v-.76h.57v.77Zm0-1.72,0-3.84h.57l0,3.84Zm0-4.42v-.76H59v.77Zm0-1.72,0-3.84H59l0,3.84Z"/><path class="cls-27" d="M48.35,116.47l.59-3.39.57.1-.59,3.39Zm.69-4,.13-.75.57.1-.13.75Zm.3-1.7L50,107l.57.1-.66,3.78Zm.75-4.34.13-.76.57.1-.13.75Zm.3-1.71.66-3.78.56.1L51,104.86Zm.75-4.34.14-.76.56.1-.13.76Zm.3-1.7.66-3.78.57.09L52,98.81Zm.76-4.35.13-.76.57.1-.14.76Zm.29-1.7.66-3.78.57.1-.66,3.78Zm.76-4.35.13-.76.57.1-.13.76Zm.29-1.7.66-3.78.57.1-.66,3.78Zm.76-4.35.13-.76.57.1-.13.76Zm.3-1.7.65-3.78.57.1-.66,3.78Zm.75-4.35.13-.75.57.09-.13.76Zm.3-1.7.66-3.78.56.1-.65,3.78Zm.76-4.35.13-.75.56.1-.13.75Zm.29-1.7.66-3.78.57.1-.66,3.78Zm.76-4.35.13-.75.57.1-.14.75Zm.29-1.7.66-3.78.57.1-.66,3.78Z"/><rect class="cls-28" x="21.94" y="86.8" width="58.69" height="0.58" transform="matrix(0.25, -0.97, 0.97, 0.25, -45.93, 114.74)"/><path class="cls-29" d="M39,114l1.14-3.24.54.19-1.14,3.24Zm1.33-3.79.26-.72.54.19-.26.72Zm.57-1.63,1.28-3.62.54.2-1.27,3.62Zm1.47-4.16.25-.72.54.19-.25.72Zm.57-1.63,1.27-3.62.55.19L43.44,103Zm1.46-4.16.26-.72.54.19-.25.72ZM44.94,97l1.27-3.62.54.19-1.27,3.62Zm1.46-4.16.25-.73.55.19-.26.73ZM47,91.18l1.27-3.62.55.19-1.28,3.62ZM48.43,87l.26-.72.54.19-.25.73ZM49,85.39l1.27-3.62.54.19-1.27,3.62Zm1.46-4.17.25-.72.55.19-.26.72ZM51,79.59,52.32,76l.54.19-1.27,3.62Zm1.47-4.16.25-.72.54.19-.25.72Zm.57-1.63,1.27-3.62.54.19L53.62,74Zm1.46-4.16.26-.73.54.2-.25.72ZM55.11,68l1.28-3.62.54.19L55.66,68.2Zm1.47-4.16.25-.73.55.19-.26.73Zm.57-1.63,1.27-3.62.55.19-1.28,3.62Z"/><path class="cls-30" d="M34.45,112.15,35.86,109l.52.23L35,112.38Zm1.64-3.67.32-.7.52.24-.31.7Zm.71-1.57,1.57-3.51.52.24-1.57,3.5Zm1.8-4,.31-.7.53.23-.31.7Zm.71-1.58,1.56-3.5.53.24-1.57,3.5Zm1.8-4,.31-.7.53.23-.32.7Zm.7-1.58,1.57-3.5.53.23-1.57,3.51Zm1.81-4,.31-.7.53.24-.32.7Zm.7-1.57,1.57-3.51.53.24-1.57,3.5Zm1.81-4,.31-.7.52.23-.31.7Zm.7-1.58L48.4,81l.52.24-1.56,3.5Zm1.8-4,.32-.7.52.24-.31.7Zm.71-1.57,1.57-3.5.52.23-1.57,3.5Zm1.8-4,.32-.7.52.24-.31.7Zm.71-1.58,1.56-3.5.53.24-1.57,3.5Zm1.8-4,.31-.7.53.23-.31.7Zm.71-1.58,1.56-3.5.53.23-1.57,3.51Zm1.8-4,.31-.7.53.24-.32.7Zm.7-1.57,1.57-3.51.53.24-1.57,3.5Z"/><path class="cls-31" d="M30.11,110l1.66-3,.5.27-1.66,3Zm1.94-3.52.37-.67.5.28-.37.67Zm.83-1.51,1.85-3.36.51.28-1.86,3.36ZM35,101.06l.37-.67.51.28-.38.67Zm.83-1.51,1.86-3.36.5.28-1.85,3.36ZM38,95.69l.38-.67.5.27-.37.68Zm.84-1.51,1.85-3.37.5.28-1.85,3.36Zm2.13-3.87.37-.67.5.28-.37.67Zm.83-1.51,1.85-3.36.51.28-1.85,3.36Zm2.13-3.87.37-.67.51.28-.37.67Zm.84-1.51,1.85-3.36.5.28L45.24,83.7Zm2.13-3.86.37-.68.5.28-.37.67ZM47.7,78l1.85-3.36.51.28L48.2,78.32Zm2.13-3.86.37-.67.5.28-.37.67Zm.83-1.51,1.86-3.36.5.28L51.17,73Zm2.13-3.87.37-.67.51.28-.37.67Zm.84-1.51,1.85-3.36.5.28-1.85,3.36Zm2.13-3.86.37-.68.5.28-.37.67Zm.83-1.52,1.85-3.36.51.28-1.86,3.36Z"/><path class="cls-32" d="M26.44,107.73l-.48-.32,1.91-2.86.48.32Zm2.22-3.34-.47-.32.42-.64.48.32Zm1-1.44-.48-.32,2.13-3.19.48.32Zm2.44-3.67L31.58,99l.43-.64.48.32Zm1-1.44-.48-.32,2.12-3.2.48.32Zm2.44-3.68L35,93.85l.43-.64.48.31Zm1-1.43-.48-.32,2.12-3.2.48.32Zm2.44-3.68-.48-.32.43-.64.48.32Zm1-1.44-.48-.32,2.12-3.19.48.32Zm2.44-3.67-.48-.32.43-.64.47.32Zm1-1.44-.48-.32L44.86,79l.48.31Zm2.44-3.68-.48-.31.42-.64.48.32Zm1-1.43-.48-.32,2.13-3.2.48.32Zm2.45-3.68-.48-.32.42-.64.48.32ZM50,72.27,49.53,72l2.13-3.19.48.32Zm2.45-3.67L52,68.28l.42-.64.48.32Zm.95-1.44-.48-.32,2.13-3.19.48.31Zm2.44-3.67-.48-.32.43-.64.48.32Zm1-1.44-.48-.32,2.12-3.2.48.32Z"/><path class="cls-33" d="M22.49,104.89l-.45-.35,2.14-2.7.45.36Zm2.5-3.14-.46-.36.48-.6.45.36Zm1.07-1.36-.45-.35L28,97l.45.35Zm2.74-3.46-.46-.35.48-.61.45.36Zm1.07-1.35-.45-.36,2.38-3,.45.36Zm2.74-3.46-.46-.36.48-.6.45.36Zm1.07-1.36-.45-.35,2.38-3,.45.36Zm2.74-3.46L36,87l.48-.6.45.35ZM37.49,86,37,85.59l2.38-3,.45.36Zm2.74-3.46-.46-.36.48-.6.45.36Zm1.07-1.35-.45-.36,2.38-3,.45.36ZM44,77.68l-.46-.36.48-.6.45.35Zm1.07-1.36L44.66,76,47,73l.45.35Zm2.74-3.46-.45-.36.47-.6.45.36Zm1.07-1.35-.45-.36,2.38-3,.45.36Zm2.74-3.46-.45-.36.47-.6.45.36Zm1.07-1.36-.45-.35,2.38-3,.45.36Zm2.74-3.46L55,62.88l.47-.61.45.36Zm1.07-1.35-.45-.36,2.38-3,.45.36Z"/><path class="cls-34" d="M18.79,101.74l-.42-.39,2.35-2.51.42.39Zm2.75-2.93-.42-.4.52-.56.42.4Zm1.18-1.26-.42-.4,2.62-2.8.42.4Zm3-3.22-.42-.4.53-.56.42.4Zm1.18-1.26-.42-.4,2.62-2.8.42.39Zm3-3.23-.42-.39.52-.56.42.39Zm1.18-1.26-.42-.39,2.62-2.8.42.39Zm3-3.22L33.7,85l.53-.56.42.39ZM35.3,84.1l-.42-.39,2.63-2.8.42.39Zm3-3.22-.42-.39.52-.56.42.39Zm1.18-1.26-.42-.39,2.62-2.81.42.4Zm3-3.22-.42-.4.53-.56.42.4Zm1.18-1.26-.42-.4,2.63-2.8.42.4Zm3-3.22-.42-.4.52-.56.43.4Zm1.18-1.27-.42-.39,2.62-2.8.42.39Zm3-3.22L50.49,67l.52-.56.42.39Zm1.18-1.26-.42-.39L54.29,63l.42.39Zm3-3.22-.42-.39.53-.56.42.39Zm1.18-1.26-.42-.39,2.62-2.8.42.39Z"/><path class="cls-35" d="M15.37,98.29,15,97.86l2.55-2.31.39.43Zm3-2.7L18,95.17l.57-.52.38.43Zm1.28-1.15L19.24,94l2.84-2.58.39.43Zm3.28-3-.39-.43.57-.52.38.43Zm1.28-1.16-.39-.43,2.84-2.57.39.42Zm3.27-3-.39-.43.57-.52.39.43Zm1.28-1.16-.39-.43,2.85-2.57.38.42Zm3.27-3-.39-.43.57-.52.39.43Zm1.28-1.16-.39-.43,2.85-2.57.39.42Zm3.27-3-.38-.43.57-.51.38.42ZM37.83,78l-.38-.43L40.29,75l.39.42Zm3.27-3-.38-.43.57-.51.38.42Zm1.29-1.16L42,73.41l2.84-2.57.39.42Zm3.27-3-.39-.43.57-.51.39.42Zm1.28-1.16-.39-.43,2.85-2.57.38.42Zm3.27-3-.39-.43.57-.51.39.42Zm1.28-1.16-.39-.43L54,62.6l.39.43Zm3.27-3-.38-.43.56-.51.39.42ZM56,61.48l-.38-.43,2.84-2.57.39.43Z"/><path class="cls-36" d="M12.39,94.28,12,93.79l.65-.5.38.49Zm1.47-1.12-.37-.49,3.26-2.48.37.49Zm3.75-2.85-.37-.49.65-.49.37.49Zm1.47-1.11-.38-.49L22,86.23l.38.48Zm3.75-2.86-.38-.49.66-.49.37.49Zm1.47-1.11-.38-.49,3.26-2.48.38.49Zm3.75-2.86-.38-.49.65-.49.38.49Zm1.46-1.11-.37-.49,3.26-2.48.37.49Zm3.75-2.85-.37-.49.65-.5.38.49Zm1.47-1.12-.37-.49,3.26-2.48.37.49Zm3.75-2.85L38.11,74l.65-.5.37.49ZM40,73.32l-.38-.49,3.26-2.48.38.49Zm3.75-2.85L43.32,70l.65-.5.38.49Zm1.47-1.12-.38-.49,3.26-2.48.38.49Zm3.75-2.85L48.54,66l.65-.5.38.49Zm1.46-1.12L50,64.89l3.26-2.48.37.49Zm3.75-2.85L53.76,62l.65-.49.38.48Zm1.47-1.12-.38-.48,3.27-2.49.37.49Z"/><path class="cls-37" d="M9.43,90.6l-.31-.49L12,88.26l.31.48Zm3.38-2.17L12.5,88l.64-.42.31.49Zm1.45-.93L14,87l3.23-2.07.31.49ZM18,85.12l-.31-.49.64-.41.31.48Zm1.45-.93-.31-.49,3.23-2.07.31.49Zm3.72-2.38-.31-.49.64-.41.31.48Zm1.45-.93-.31-.49,3.23-2.07.31.49Zm3.72-2.38L28,78l.64-.41.31.48Zm1.45-.94-.31-.48L32.69,75l.31.48Zm3.72-2.38-.31-.48.64-.42.31.49Zm1.45-.93-.31-.48,3.23-2.07.31.48Zm3.72-2.38-.32-.48L39,71l.31.49Zm1.45-.93-.31-.48L43,68.39l.31.48Zm3.72-2.38-.32-.48.65-.42.31.49Zm1.45-.93L45,67.14l3.23-2.07.31.49ZM49,65.25l-.31-.49.65-.41.31.48Zm1.46-.93-.31-.49,3.23-2.07.31.49Zm3.71-2.38-.31-.49L54.5,61l.31.48ZM55.62,61l-.31-.48,3.23-2.07.31.48Z"/><path class="cls-38" d="M7,86.41l-.26-.51,3-1.61.27.51Zm3.55-1.88L10.23,84l.68-.36.27.51ZM12,83.72l-.27-.51,3.39-1.79.27.51Zm3.9-2.06-.27-.51.68-.36.27.51Zm1.52-.81-.26-.51,3.39-1.8.27.51Zm3.9-2.07-.26-.5.67-.36.27.51Zm1.53-.8-.27-.51L26,75.67l.27.51Zm3.9-2.07-.27-.51.68-.36.27.51Zm1.53-.81L28,74.6l3.39-1.8.27.51ZM32.21,73l-.27-.51.68-.36.27.51Zm1.52-.81-.27-.51,3.4-1.79.26.51Zm3.9-2.06-.27-.51L38,69.3l.27.51Zm1.53-.81-.27-.51,3.39-1.79.27.5Zm3.9-2.07-.27-.5.68-.36.27.51Zm1.53-.8L44.32,66l3.39-1.8.27.51Zm3.9-2.07-.27-.51.67-.36.27.51ZM50,63.61l-.27-.5,3.39-1.8.27.51Zm3.9-2.06L53.64,61l.68-.36.27.51Zm1.53-.81-.27-.51,3.39-1.79.27.51Z"/><path class="cls-39" d="M4.84,82l-.23-.53,3.16-1.35.23.53Zm3.69-1.58-.23-.53.71-.3.22.53Zm1.59-.68-.23-.53,3.53-1.51.23.53ZM14.17,78,14,77.51l.7-.3.23.53Zm1.59-.68-.22-.53,3.52-1.51.23.53Zm4.06-1.74-.23-.53.71-.3.23.53ZM21.41,75l-.23-.53,3.53-1.51.23.53Zm4.05-1.74-.22-.53.7-.3.23.53Zm1.59-.68L26.83,72l3.52-1.51.23.53Zm4.06-1.73-.23-.53.71-.3.23.53Zm1.59-.68-.23-.53L36,68.08l.23.53Zm4.06-1.74-.23-.53.7-.3.23.53Zm1.58-.67-.22-.53,3.53-1.51.22.53ZM42.4,66l-.23-.53.71-.3.23.53ZM44,65.29l-.23-.53,3.53-1.51.23.53Zm4.06-1.73L47.82,63l.71-.3.22.53Zm1.58-.68-.22-.53,3.53-1.51.22.53Zm4.06-1.74-.22-.52.7-.31.23.53Zm1.59-.67-.23-.53,3.53-1.51.23.53Z"/><rect class="cls-40" x="1.5" y="67.67" width="58.69" height="0.58" transform="translate(-19.88 13.21) rotate(-18.4)"/><path class="cls-41" d="M1.73,72.82l-.14-.56,3.34-.81.14.56Zm3.9-.95-.14-.55.75-.19.13.56Zm1.67-.4-.13-.56L10.9,70l.13.56Zm4.29-1-.13-.56.74-.18.14.55ZM13.27,70l-.14-.56,3.73-.91.14.56Zm4.29-1-.14-.56.75-.18.13.56Zm1.68-.41L19.1,68l3.73-.9.14.55Zm4.28-1L23.39,67l.74-.18.14.56Zm1.68-.41-.13-.56,3.73-.9.13.56Zm4.29-1-.13-.56.74-.18.14.56Zm1.68-.41L31,65.11l3.73-.9.14.56Zm4.29-1-.14-.56.75-.18.13.56Zm1.67-.41L37,63.66l3.73-.9.13.56Zm4.29-1-.13-.56.74-.18.14.56Zm1.68-.4L43,62.22l3.72-.91.14.56Zm4.29-1.05-.14-.56L48,61l.14.56Zm1.68-.4-.14-.56,3.73-.91.14.56Zm4.29-1-.14-.56.75-.19.13.56ZM55,59.88l-.13-.56,3.73-.91.13.56Z"/><rect class="cls-42" x="0.35" y="62.94" width="58.69" height="0.58" transform="translate(-9.42 5.35) rotate(-8.9)"/><path class="cls-43" d="M.17,63.23l0-.58,3.43-.25,0,.58Zm4-.29,0-.58.76,0,0,.57Zm1.72-.13,0-.57L9.69,62l0,.57Zm4.4-.32,0-.57.77-.06,0,.58ZM12,62.37l0-.58,3.83-.27,0,.57Zm4.41-.32-.05-.58.77,0,0,.57Zm1.72-.13,0-.57,3.82-.28,0,.58Zm4.4-.32,0-.57.76-.06,0,.58Zm1.72-.12,0-.57,3.83-.28,0,.57Zm4.4-.32,0-.57.77-.06,0,.57ZM30.39,61l0-.58,3.83-.28,0,.58Zm4.41-.32,0-.58.77,0,0,.57Zm1.72-.13,0-.57,3.82-.28,0,.57Zm4.4-.32,0-.57.76-.06,0,.58Zm1.72-.12,0-.58,3.83-.28,0,.58Zm4.4-.32,0-.58.77,0,0,.57Zm1.72-.13,0-.57,3.83-.28,0,.57Zm4.41-.32-.05-.57.77-.06,0,.58Zm1.72-.12,0-.58,3.82-.27,0,.57Z"/><rect class="cls-44" x="29.06" y="29.04" width="0.58" height="58.69" transform="translate(-29.35 87.11) rotate(-89.39)"/><path class="cls-45" d="M.23,53.51l.05-.57,3.43.32-.06.57Zm4,.37,0-.57.76.07L5,54ZM5.94,54,6,53.47l3.82.36-.06.57Zm4.4.42.05-.58.77.07-.06.58Zm1.72.16,0-.58,3.82.36,0,.57Zm4.39.41.05-.58.77.08-.05.57Zm1.72.16,0-.57L22,55l-.05.58Zm4.39.41.06-.57.76.07-.05.57Zm1.72.16.06-.57,3.82.36-.06.57Zm4.4.41.05-.57.76.07,0,.57Zm1.72.16.05-.57,3.82.36-.05.57Zm4.39.41.05-.57.77.07-.06.58Zm1.72.17.05-.58,3.82.36-.05.57Zm4.39.41.06-.58.76.07,0,.58Zm1.72.16.06-.58,3.82.36-.06.57Zm4.39.41.06-.57.76.07,0,.57Zm1.72.16.06-.57,3.82.35-.06.58Zm4.4.41,0-.57L54,58l-.06.57Zm1.72.16,0-.57,3.82.36,0,.57Z"/><rect class="cls-46" x="29.51" y="24.2" width="0.58" height="58.69" transform="translate(-28.15 73.49) rotate(-79.89)"/><path class="cls-47" d="M1.89,43.93,2,43.38l3.33.88-.15.55Zm3.88,1,.14-.55.74.19-.14.56Zm1.66.44.15-.55,3.71,1-.15.56Zm4.27,1.13.15-.55.74.19-.15.56Zm1.67.45.15-.56,3.71,1-.15.56Zm4.26,1.13.15-.56.74.2-.14.55Zm1.67.44.15-.56,3.71,1-.15.55Zm4.27,1.13.15-.56.74.2-.15.56Zm1.67.44.15-.55,3.7,1-.14.56Zm4.26,1.13.15-.55.74.19-.14.56Zm1.67.45.15-.56,3.71,1-.15.56Zm4.27,1.13.15-.56.74.2-.15.55Zm1.67.44.15-.56,3.7,1-.14.55Zm4.26,1.13.15-.56.74.2-.15.56Zm1.67.44.15-.55,3.71,1-.15.55ZM47.31,56l.15-.55.74.19-.15.56Zm1.67.44.14-.55,3.71,1-.14.56Zm4.26,1.14.15-.56.74.2-.15.55Zm1.67.44.15-.56,3.71,1-.15.56Z"/><rect class="cls-48" x="30.76" y="19.5" width="0.58" height="58.69" transform="translate(-25.39 61.71) rotate(-70.4)"/><path class="cls-49" d="M5.1,34.76l.24-.52,3.13,1.41-.24.53Zm3.66,1.66L9,35.89l.7.32-.23.52Zm1.57.71.24-.53,3.49,1.59-.23.52Zm4,1.82.24-.53.7.32-.24.52Zm1.57.71.24-.53,3.5,1.59-.24.52Zm4,1.82.24-.53.7.32-.24.52Zm1.58.71.23-.53,3.5,1.59-.24.52Zm4,1.82.24-.53.69.32-.23.52Zm1.57.71.24-.52,3.49,1.58-.23.52Zm4,1.82.24-.53.7.32-.24.53Zm1.57.71.24-.52,3.5,1.58-.24.52Zm4,1.82.23-.52.7.31-.24.53Zm1.57.71.24-.52L42,50.84l-.24.52Zm4,1.82.24-.52.7.31-.24.53Zm1.57.71.24-.52,3.5,1.58-.24.52Zm4,1.82.24-.52.7.31-.24.53Zm1.58.71.23-.52,3.5,1.58-.24.52Zm4,1.82.23-.52.7.31-.23.53Zm1.57.71.24-.52,3.49,1.58-.23.52Z"/><rect class="cls-50" x="32.76" y="15.08" width="0.58" height="58.69" transform="translate(-21.84 51.71) rotate(-60.91)"/><path class="cls-51" d="M58.53,58.93l-3.18-2.14.32-.47,3.18,2.13Zm-4-2.67-.64-.43.32-.47.64.42Zm-1.12-.75-3.18-2.13.32-.48L53.76,55Zm-4-2.67-.64-.43.32-.47.64.42Zm-1.11-.75L45.15,50l.32-.48,3.19,2.14Zm-4-2.67L43.71,49l.32-.48.64.42Zm-1.11-.75-3.19-2.13.32-.48,3.19,2.14Zm-4-2.67-.64-.42.32-.48.64.43Zm-1.11-.74L35,43.12l.32-.48,3.19,2.14Zm-4-2.68-.64-.42.33-.48.63.43ZM33,41.84,29.85,39.7l.32-.48,3.19,2.14Zm-4-2.67-.63-.43.32-.48.63.43Zm-1.11-.75-3.19-2.14.32-.48,3.19,2.14Zm-4-2.67-.63-.43.32-.48.63.43ZM22.84,35l-3.19-2.14.32-.48,3.19,2.14Zm-4-2.67-.63-.43.32-.48.63.43Zm-1.11-.75-3.19-2.14.32-.48,3.19,2.14Zm-4-2.67-.63-.43.32-.48.64.43Zm-1.11-.75L9.78,26.25l.32-.48L13,27.68Z"/><rect class="cls-52" x="35.47" y="11.04" width="0.58" height="58.69" transform="translate(-18.12 43.14) rotate(-51.41)"/><path class="cls-53" d="M58.5,58.9l-2.79-2.63.39-.42,2.79,2.63ZM55,55.61l-.56-.53.4-.42.55.53Zm-1-.92-2.79-2.64.4-.41,2.79,2.63ZM50.54,51.4,50,50.87l.4-.42.56.53Zm-1-.93-2.79-2.63.39-.42L50,50.06Zm-3.49-3.29-.56-.52.39-.42.56.52Zm-1-.92-2.79-2.63.39-.42,2.8,2.63ZM41.61,43l-.56-.53.4-.42.56.53Zm-1-.92-2.8-2.64.4-.41L41,41.63Zm-3.49-3.29-.56-.53.39-.42.56.53Zm-1-.93L33.38,35.2l.39-.42,2.79,2.64Zm-3.49-3.29L32.12,34l.4-.42.56.52Zm-1-.92L28.91,31l.4-.42L32.1,33.2Zm-3.48-3.29-.56-.53.39-.42.56.53Zm-1-.92-2.79-2.64.39-.41L27.63,29Zm-3.49-3.29-.56-.53.4-.42.56.53Zm-1-.93L20,22.56l.4-.42,2.79,2.63ZM19.29,21.9l-.56-.53.39-.41.56.52Zm-1-.92-2.5-2.36.39-.42,2.5,2.36Z"/><rect class="cls-54" x="38.8" y="7.51" width="0.58" height="58.69" transform="translate(-14.62 35.54) rotate(-41.91)"/><path class="cls-55" d="M58.47,58.87l-2.32-3.06.46-.35,2.31,3.06ZM55.57,55l-.47-.61.46-.35.47.62ZM54.76,54l-2.32-3,.46-.35,2.31,3.06Zm-2.9-3.82-.47-.61.46-.35.47.61Zm-.81-1.07L48.73,46l.46-.34,2.32,3Zm-2.9-3.82-.46-.61.45-.35.47.61Zm-.81-1.07L45,41.13l.46-.35,2.32,3.06Zm-2.9-3.82L44,39.75l.46-.34.46.61Zm-.81-1.07-2.32-3.06.46-.35L44.09,39Zm-2.9-3.83-.46-.61.46-.35.46.62Zm-.81-1.07-2.32-3,.46-.35,2.32,3.06ZM37,30.58,36.56,30l.46-.35.46.61Zm-.81-1.07-2.32-3.06.46-.34,2.32,3.05Zm-2.9-3.82-.46-.61.46-.35.46.61Zm-.81-1.07-2.32-3.06.46-.35L33,24.27ZM29.61,20.8l-.47-.62.46-.34.46.61Zm-.82-1.07-2.31-3.06.45-.35,2.32,3.06ZM25.9,15.9l-.47-.61.46-.35.46.62Zm-.82-1.07L23,12.09l.46-.35,2.07,2.75Z"/><rect class="cls-56" x="42.67" y="4.57" width="0.58" height="58.69" transform="matrix(0.84, -0.54, 0.54, 0.84, -11.49, 28.32)"/><path class="cls-57" d="M58.44,58.83l-1.78-3.4.51-.27L59,58.56Zm-2.23-4.25-.35-.68.51-.27.35.68Zm-.62-1.19L53.81,50l.51-.27,1.78,3.4Zm-2.23-4.25L53,48.46l.5-.27.36.68ZM52.74,48,51,44.55l.51-.26,1.78,3.39ZM50.51,43.7,50.15,43l.51-.26.36.68Zm-.62-1.19-1.78-3.39.51-.27,1.78,3.4Zm-2.23-4.24-.36-.68.51-.27.36.68ZM47,37.08l-1.79-3.4.51-.27,1.79,3.4Zm-2.23-4.25-.36-.68.51-.27.36.68Zm-.62-1.19-1.79-3.4.51-.27,1.79,3.4ZM42,27.39l-.36-.68.51-.27.36.68Zm-.63-1.19-1.78-3.4.51-.26,1.78,3.39ZM39.11,22l-.36-.68.51-.26.36.68Zm-.63-1.19-1.78-3.4.51-.26L39,20.5Zm-2.22-4.24-.36-.68.51-.27.36.68Zm-.63-1.19-1.78-3.4.51-.27,1.78,3.4Zm-2.22-4.25-.36-.68.51-.27.36.68Zm-.63-1.19L31.19,6.84l.51-.26,1.59,3Z"/><rect class="cls-58" x="46.98" y="2.31" width="0.58" height="58.69" transform="translate(-8.6 20.91) rotate(-22.92)"/><path class="cls-59" d="M58.42,58.78l-1.2-3.64.55-.18L59,58.6Zm-1.49-4.56-.24-.72.54-.18.24.73ZM56.51,53l-1.2-3.65.55-.18,1.19,3.65ZM55,48.39l-.24-.73.55-.18.24.73Zm-.42-1.27L53.4,43.47l.54-.18,1.2,3.65ZM53.1,42.56l-.24-.73.54-.18.24.73Zm-.42-1.28-1.2-3.64.55-.18,1.19,3.64Zm-1.5-4.56L50.94,36l.55-.18.24.73Zm-.42-1.27L49.57,31.8l.54-.18,1.2,3.65Zm-1.49-4.56L49,30.16l.55-.18.23.73Zm-.42-1.27L47.65,26l.55-.18,1.2,3.65Zm-1.5-4.56-.24-.73.55-.18.24.73Zm-.42-1.28-1.19-3.64.54-.18,1.2,3.64Zm-1.49-4.56-.24-.72.55-.18L46,19ZM45,18l-1.2-3.65.55-.18,1.2,3.65Zm-1.5-4.56-.23-.73.54-.18.24.73Zm-.41-1.27-1.2-3.65.55-.18,1.19,3.65Zm-1.5-4.56-.24-.73.55-.18.24.73Zm-.42-1.28L40.12,3l.55-.18L41.74,6.1Z"/><rect class="cls-60" x="51.6" y="0.8" width="0.58" height="58.69" transform="translate(-5.58 12.86) rotate(-13.42)"/><path class="cls-61" d="M58.41,58.74l-.58-3.8.57-.08L59,58.65ZM57.69,54l-.12-.75.57-.09.12.76Zm-.21-1.32-.57-3.8.56-.08.58,3.79Zm-.72-4.75-.11-.75.56-.09.12.76Zm-.2-1.32L56,42.8l.57-.08.58,3.79Zm-.72-4.74-.12-.76.57-.09.11.76Zm-.21-1.33-.58-3.8.57-.08.58,3.79Zm-.72-4.74L54.79,35l.57-.09.12.76Zm-.2-1.33-.58-3.79.57-.09.58,3.79ZM54,29.72,53.87,29l.57-.09.11.76Zm-.2-1.33L53.2,24.6l.57-.09.58,3.79Zm-.72-4.74-.12-.76.57-.09.12.76Zm-.2-1.33-.58-3.79.57-.09.58,3.79Zm-.73-4.74L52,16.82l.57-.09.11.76Zm-.2-1.33-.58-3.79.57-.09.58,3.79Zm-.72-4.74-.12-.76.57-.09.12.76ZM51,10.18l-.57-3.79L51,6.3l.57,3.79Zm-.72-4.74-.11-.76.56-.09.12.76Zm-.2-1.33L49.56.71l.57-.08L50.65,4Z"/><path class="cls-62" d="M58.41,58.71l-.27-3.83.58,0L59,58.67Zm-.33-4.78,0-.77.57,0,0,.77ZM58,52.59l-.27-3.83.58,0,.26,3.83Zm-.33-4.79,0-.76.57,0,0,.76Zm-.09-1.34-.27-3.83.58,0,.26,3.83Zm-.33-4.78-.05-.77.57,0,.05.77Zm-.09-1.34-.27-3.83.58,0,.26,3.83Zm-.33-4.79,0-.76.57,0,0,.76Zm-.09-1.34-.27-3.83.58,0,.26,3.83Zm-.33-4.78,0-.77.57,0,0,.77Zm-.09-1.34L56,24.26l.58,0,.26,3.83ZM56,23.3l0-.76.57,0,0,.76ZM55.89,22l-.27-3.83.58,0,.26,3.83Zm-.33-4.78-.05-.77.57,0,.05.77Zm-.09-1.34L55.2,12l.58,0L56,15.8Zm-.33-4.79,0-.76.57,0,.05.76Zm-.09-1.34-.27-3.83.58,0,.26,3.83Zm-.33-4.78,0-.77.57,0,0,.77Zm-.09-1.34L54.39.16l.58,0,.23,3.43Z"/><path class="cls-63" d="M58.41,58.69l.05-3.84H59L59,58.7Zm.07-4.8v-.77h.57v.77Zm0-1.34,0-3.84h.58l-.06,3.84Zm.06-4.8,0-.76h.57v.77Zm0-1.34.06-3.84h.57l-.05,3.84Zm.07-4.8v-.76h.58v.76Zm0-1.34.06-3.84h.57l0,3.84Zm.07-4.79v-.77h.58v.76Zm0-1.35.06-3.83h.57l0,3.84Zm.07-4.79v-.77h.58v.77Zm0-1.35,0-3.83h.58L59.42,28Zm.07-4.79v-.77h.58l0,.77Zm0-1.34L59,18h.58l-.06,3.83Zm.07-4.8v-.77h.57v.77Zm0-1.34,0-3.84h.58l-.06,3.83Zm.07-4.8v-.77h.57v.77Zm0-1.34.06-3.84h.58l-.06,3.84Zm.07-4.8,0-.77h.57v.77Zm0-1.34,0-3.44h.58l0,3.44Z"/><path class="cls-64" d="M58.38,58.65l.41-4.11.62.06L59,58.7Zm.52-5.14.08-.82.61.06-.08.82Zm.15-1.44L59.46,48l.61.06-.41,4.11Zm.52-5.13.08-.82.61.05-.08.82Zm.14-1.44.42-4.11.61.06-.41,4.11Zm.52-5.14.09-.82.61.06-.08.82Zm.15-1.44.42-4.1.61,0L61,39Zm.52-5.13L61,33l.61.05-.08.83Zm.15-1.44.42-4.11.61.06-.42,4.11Zm.52-5.14.08-.82.62.06-.09.82Zm.15-1.43.41-4.11.62,0-.42,4.11Zm.52-5.14.08-.82.61.06-.08.82Zm.14-1.44.42-4.11.61.06L63,19.26Zm.53-5.13.08-.83.61.06-.08.82Zm.14-1.44.42-4.11.61.06-.42,4.1Zm.52-5.14.09-.82.61.06-.08.82Zm.15-1.44.42-4.11.61.06-.42,4.11ZM64.24.92,64.33.1l.61,0L64.85,1Z"/><path class="cls-65" d="M58.41,58.64l.69-3.77.57.1L59,58.74Zm.86-4.72.14-.75.56.1-.13.76Zm.24-1.32.69-3.77.57.1-.69,3.77Zm.86-4.72.14-.75.56.1-.13.76Zm.24-1.32.69-3.77.57.1-.69,3.77Zm.86-4.72.14-.75.57.1L62,42Zm.24-1.32.69-3.77.57.1-.69,3.77Zm.86-4.72.14-.75.57.1-.14.75Zm.24-1.32.69-3.77.57.1-.69,3.77Zm.86-4.72.14-.75.57.1-.14.75Zm.24-1.32.69-3.77.57.1-.69,3.77Zm.86-4.72.14-.75.57.1-.14.75ZM65,22.4l.69-3.77.57.1-.69,3.77Zm.86-4.72.14-.75.57.1-.14.75Zm.24-1.32.69-3.77.57.1-.69,3.77ZM67,11.64l.14-.75.57.1-.14.75Zm.24-1.32.69-3.78.57.11-.69,3.77Zm.86-4.72.14-.75.57.1-.14.75Zm.24-1.32L68.93.9l.57.1-.62,3.38Z"/><path class="cls-66" d="M58.42,58.62l1-3.71.56.15-1,3.71ZM59.66,54l.2-.74.56.15-.2.74Zm.35-1.3L61,49l.56.15-1,3.71Zm1.25-4.63.2-.74.56.15-.2.74Zm.35-1.3,1-3.7.55.15-1,3.7Zm1.25-4.63.2-.74.55.15-.2.74Zm.35-1.3,1-3.7.56.15-1,3.7Zm1.24-4.63.2-.74.56.15-.2.74Zm.35-1.3,1-3.7.56.15-1,3.7Zm1.25-4.63.2-.74.56.15-.2.74ZM66.4,29l1-3.71.55.15-1,3.71Zm1.25-4.64.2-.74.55.15-.2.74ZM68,23.05l1-3.71.56.15-1,3.71Zm1.24-4.63.2-.74.56.15-.2.74Zm.35-1.3,1-3.71.56.15-1,3.71Zm1.25-4.63.2-.74.56.15-.2.74Zm.35-1.3,1-3.7.55.15-1,3.7Zm1.25-4.63.2-.74.55.15-.2.74Zm.35-1.3.89-3.32.56.15-.9,3.32Z"/><path class="cls-67" d="M58.42,58.59l1.3-3.6.55.19L59,58.79Zm1.63-4.51.26-.72.54.2-.26.72Zm.46-1.26,1.3-3.61.54.19L61.05,53Zm1.62-4.51.26-.72.54.19-.26.72ZM62.59,47l1.3-3.61.54.2-1.3,3.61Zm1.62-4.51.26-.72L65,42l-.26.73Zm.46-1.26L66,37.66l.54.19-1.3,3.61Zm1.63-4.51.26-.73.54.2-.26.72Zm.45-1.27,1.3-3.61.54.2-1.3,3.61ZM68.38,31l.26-.72.54.19-.26.72Zm.45-1.26,1.3-3.61.55.19-1.31,3.61Zm1.63-4.52.26-.72.54.2L71,25.4Zm.45-1.26,1.31-3.61.54.2-1.3,3.61Zm1.63-4.51.26-.72.54.19-.26.72ZM73,18.16l1.3-3.61.54.2-1.3,3.61Zm1.62-4.51.26-.72.54.2-.26.72Zm.46-1.26,1.3-3.61.54.19-1.3,3.61Zm1.63-4.51L77,7.15l.54.2-.26.72Zm.45-1.27,1.17-3.23.54.19L77.7,6.81Z"/><path class="cls-68" d="M58.43,58.57,60,55.08l.52.24L59,58.81Zm2-4.36.32-.7.52.24-.32.7ZM61,53l1.59-3.49.52.24-1.59,3.49Zm2-4.36.32-.7.52.24-.32.7Zm.56-1.22,1.59-3.49.53.24-1.6,3.49Zm2-4.37.32-.69.53.23-.32.7Zm.56-1.22,1.6-3.49.52.24-1.6,3.49Zm2-4.36.31-.7.53.24-.32.7Zm.55-1.22,1.6-3.49.52.24-1.59,3.49Zm2-4.36.32-.7.52.24-.32.7Zm.56-1.23,1.59-3.48.53.23-1.6,3.49Zm2-4.36.32-.7.52.24-.32.7Zm.56-1.22,1.6-3.49.52.24-1.6,3.49Zm2-4.36.32-.7.53.24-.32.7Zm.56-1.22L77.9,16l.52.24-1.59,3.49Zm2-4.36.32-.7.52.24-.32.69Zm.56-1.23,1.59-3.49.52.24-1.59,3.49Zm2-4.36.32-.7.52.24-.32.7Zm.56-1.22,1.43-3.13.52.24L81.93,8.56Z"/><path class="cls-69" d="M58.44,58.55l1.88-3.34.5.28L59,58.83Zm2.35-4.18.38-.67.5.28-.38.67Zm.66-1.17,1.88-3.35.5.28L62,53.48ZM63.8,49l.37-.67.51.28-.38.67Zm.66-1.17,1.88-3.35.5.28L65,48.13Zm2.34-4.19.38-.67.5.29-.37.67Zm.66-1.17,1.88-3.34.5.28L68,42.77Zm2.35-4.18.38-.67.5.28-.38.67Zm.66-1.17,1.88-3.35.5.29L71,37.42ZM72.82,33l.37-.67.51.28-.38.67Zm.66-1.17,1.87-3.35.51.28L74,32.07Zm2.34-4.19.38-.66.5.28-.37.67Zm.66-1.17,1.88-3.34.5.28L77,26.72Zm2.35-4.18.38-.67.5.28-.38.67Zm.66-1.17,1.88-3.35.5.29L80,21.36Zm2.35-4.18.37-.67.5.28-.37.67Zm.65-1.17,1.88-3.35.51.28L83,16Zm2.35-4.19.38-.66.5.28-.37.67Zm.66-1.17,1.68-3,.51.28-1.69,3Z"/><path class="cls-70" d="M58.93,58.85l-.47-.32,2.15-3.18.47.33Zm2.69-4-.48-.32.43-.64.48.32Zm.75-1.11-.47-.32L64,50.27l.48.32Zm2.69-4-.48-.32.43-.63.48.32Zm.75-1.11-.48-.32,2.15-3.18.48.32Zm2.69-4L68,44.39l.43-.64.48.32Zm.75-1.11-.48-.33,2.15-3.17.48.32Zm2.69-4-.48-.32.43-.64.48.33Zm.75-1.11-.48-.32L74.36,35l.48.32Zm2.69-4-.48-.33.43-.63.48.32Zm.75-1.12-.48-.32,2.15-3.18.48.33Zm2.69-4-.48-.32.43-.64.48.33Zm.75-1.11L79.09,28l2.15-3.18.48.32Zm2.68-4L81.78,24l.43-.63.47.32ZM83,23.25l-.48-.32,2.15-3.18.48.32Zm2.68-4L85.22,19l.43-.64.47.32Zm.76-1.11L86,17.85l2.15-3.18.48.32Zm2.68-4-.47-.32.43-.63.47.32Zm.76-1.11-.48-.32,1.93-2.85.47.32Z"/><path class="cls-71" d="M58.92,58.87l-.45-.36,2.41-3,.44.36Zm3-3.73-.45-.37.48-.59.45.36Zm.84-1-.45-.36,2.4-3,.45.36Zm3-3.74L65.33,50l.48-.6.44.36Zm.85-1-.45-.37,2.4-3,.45.36Zm3-3.74-.45-.36.48-.6.45.36Zm.84-1L70,44.16l2.4-3,.45.36Zm3-3.73L73,40.42l.48-.59.45.36Zm.84-1-.45-.36,2.41-3,.45.36Zm3-3.74-.45-.36.48-.6.45.36Zm.84-1-.45-.37,2.41-3,.45.37Zm3-3.74-.45-.36.48-.6.45.36Zm.84-1-.45-.36,2.41-3,.44.36Zm3-3.74-.45-.36.48-.59.45.36Zm.84-1L85.41,25l2.4-3,.45.36Zm3-3.74-.44-.36.48-.6.45.36Zm.85-1-.45-.36,2.4-3,.45.36Zm3-3.73-.45-.36.49-.6.44.36Zm.84-1.05-.44-.36,2.15-2.68.45.36Z"/><path class="cls-72" d="M58.9,58.89l-.41-.4,2.64-2.78.42.4Zm3.31-3.47-.42-.4.53-.56.42.4Zm.92-1-.41-.39,2.64-2.78.42.39ZM66.44,51l-.42-.4.53-.56.42.4Zm.93-1L67,49.6l2.64-2.78.42.39Zm3.3-3.47-.42-.4.53-.55.42.39Zm.93-1-.42-.4,2.64-2.78.42.39Zm3.3-3.48-.41-.4.52-.55.42.39Zm.93-1-.42-.4,2.65-2.78.41.4Zm3.3-3.48-.41-.4.53-.55.41.39Zm.93-1-.42-.4,2.65-2.78.41.4Zm3.31-3.48L83,32.78l.53-.56.41.4Zm.92-1-.42-.4L86.52,29l.42.4Zm3.31-3.48-.42-.39.53-.56.42.4Zm.92-1-.42-.4,2.65-2.78.42.4Zm3.31-3.47-.42-.4.53-.56.42.4Zm.92-1-.41-.39L95,20.13l.42.39Zm3.31-3.47-.42-.4.53-.56.42.4Zm.92-1-.41-.39L98.94,16l.41.39Z"/><path class="cls-73" d="M58.89,58.91l-.39-.43,2.87-2.55.38.43Zm3.58-3.19-.39-.43.58-.51.38.43Zm1-.9-.38-.43L66,51.84l.39.43Zm3.58-3.19-.38-.43.57-.51.39.43Zm1-.89-.39-.43,2.87-2.55.38.43Zm3.58-3.19-.38-.43.57-.51.38.43Zm1-.89-.38-.43,2.86-2.55.39.43Zm3.58-3.19L75.84,43l.57-.51.39.43Zm1-.89-.39-.43,2.87-2.56.38.43Zm3.58-3.19L80.43,39l.57-.51.38.43Zm1-.9-.38-.43,2.86-2.55.39.43Zm3.58-3.19L85,34.87l.57-.51.39.43Zm1-.89L86,34l2.87-2.55.38.43ZM90,31.22l-.38-.43.57-.51.38.43Zm1-.89-.38-.43,2.86-2.56.39.43Zm3.58-3.19-.38-.43.57-.51.39.43Zm1-.9-.39-.43,2.87-2.55.38.43Zm3.58-3.19-.38-.43.57-.51.38.43Zm1-.89-.38-.43,2.57-2.29.38.43Z"/><path class="cls-74" d="M58.91,58.94l-.38-.49L61.85,56l.37.5Zm4.14-3.1-.38-.5.67-.49.37.49ZM64.21,55l-.38-.5L67.15,52l.38.5Zm4.14-3.1-.37-.5.66-.5.38.5ZM69.51,51l-.37-.5L72.45,48l.38.49Zm4.15-3.11-.38-.49.67-.5.37.5ZM74.82,47l-.38-.49L77.76,44l.37.5ZM79,43.92l-.37-.5.66-.49.38.49Zm1.16-.87-.37-.5,3.31-2.48.38.5ZM84.27,40l-.38-.5.66-.5.38.5Zm1.16-.87-.38-.5,3.32-2.48.37.49ZM89.57,36l-.37-.49.66-.5.37.5Zm1.16-.87-.37-.49,3.31-2.49.38.5ZM94.88,32l-.38-.5.66-.49.38.49ZM96,31.13l-.38-.5L99,28.15l.37.5Zm4.14-3.1-.37-.5.66-.5.37.5Zm1.16-.87-.37-.5,3.31-2.48.38.49Zm4.14-3.11-.37-.49.66-.5.38.5Z"/><path class="cls-75" d="M58.85,58.94l-.31-.49,3.25-2.05.31.49Zm4.06-2.56-.31-.49.65-.4.31.48ZM64,55.67l-.3-.49,3.24-2,.31.49Zm4.06-2.56-.3-.49.65-.41.3.49Zm1.14-.71-.31-.49,3.25-2,.31.49Zm4.06-2.56L73,49.35l.65-.41.31.49Zm1.14-.72-.31-.48,3.25-2,.3.49Zm4-2.55-.3-.49.65-.41.3.49Zm1.14-.72-.31-.48,3.25-2,.31.49Zm4.06-2.55-.31-.49L84,42.4l.31.49Zm1.14-.72-.31-.48,3.25-2.05.3.49ZM88.89,40l-.31-.49.65-.41.31.49ZM90,39.31l-.3-.48,3.24-2,.31.49Zm4.06-2.55-.3-.49.65-.41.3.49ZM95.22,36l-.31-.48,3.25-2.05.31.49Zm4.06-2.55L99,33l.65-.41.31.49Zm1.13-.72-.3-.48,3.25-2.05.3.49Zm4.06-2.55-.3-.49.65-.41.3.49Zm1.14-.72L105.3,29l2.91-1.83.31.49Z"/><path class="cls-76" d="M53.51,117.44l.24-3.09.57.06-.24,3.09Zm.28-3.6.05-.69.58,0-.06.69Zm.12-1.55.27-3.45.57.06-.27,3.44Zm.31-4,.06-.68.57,0-.05.69Zm.12-1.55.28-3.44.57.06-.27,3.44Zm.32-4,.05-.69.57.06-.05.69Zm.12-1.55.27-3.44.57.06-.27,3.44Zm.31-4,0-.69.58.06-.06.69Zm.12-1.55.27-3.44.58,0-.28,3.45Zm.31-4,.06-.69.57.06,0,.69Zm.13-1.55.27-3.44.57,0-.27,3.45Zm.31-4,0-.69.57.06,0,.69Zm.12-1.55.27-3.45.57.06-.27,3.45Zm.31-4,.06-.69.57.06-.06.68Zm.12-1.55.28-3.45.57.06-.27,3.44Zm.32-4,.05-.69.57.05-.05.69ZM57,73.71l.27-3.45.57.06-.27,3.44Zm.31-4,.05-.69.58,0-.06.69Zm.12-1.55.27-3.45.58.06L58,68.25Z"/><ellipse class="cls-77" cx="58.46" cy="59.87" rx="49.93" ry="50.42"/><line class="cls-78" x1="71.45" y1="23.95" x2="60.72" y2="59.69"/><path class="cls-78" d="M86,53.2c.59,1.95,3.86,13.41-2.77,24.78A31.36,31.36,0,0,1,67.33,91.31"/><path class="cls-78" d="M58.81,32.68a28.64,28.64,0,0,0-16.28,2.76,29.22,29.22,0,0,0-9.75,8.21c-.26.35-.66.88-1.12,1.58a34.82,34.82,0,0,0-5.48,17.55C26,77,38,87,39,87.74"/><line class="cls-78" x1="40.39" y1="60.98" x2="47.22" y2="39.65"/><line class="cls-78" x1="76.86" y1="34.23" x2="68.7" y2="62.02"/><line class="cls-78" x1="81.17" y1="56.26" x2="75.41" y2="75.31"/><path class="cls-79" d="M42,73.19s16.86-11.17,26.27,9C68.24,82.24,50.38,94.05,42,73.19Z"/><ellipse class="cls-79" cx="55.19" cy="77.91" rx="7.27" ry="7.23" transform="matrix(0.26, -0.97, 0.97, 0.26, -34.27, 111.26)"/><circle class="cls-80" cx="55.4" cy="77.88" r="2.2"/><path class="cls-78" d="M38.51,67a27.23,27.23,0,0,0-1.78,9.33c0,3.28-.1,8.19,3.23,12.82a18.31,18.31,0,0,0,11,7c7.8,1.69,13.91-2.89,14.85-3.61l.35-.28a22.62,22.62,0,0,0,7.33-10.83"/><line class="cls-78" x1="60.83" y1="26.63" x2="51.55" y2="57.98"/><line class="cls-81" x1="69.46" y1="79.41" x2="79.47" y2="76.07"/><ellipse class="cls-82" cx="72.52" cy="71.02" rx="0.33" ry="0.35" transform="translate(-19.59 28.36) rotate(-19.55)"/><ellipse class="cls-82" cx="70.58" cy="68.4" rx="0.35" ry="0.33" transform="translate(-4.69 131.61) rotate(-84.12)"/><ellipse class="cls-82" cx="65.25" cy="64.45" rx="0.35" ry="0.33" transform="translate(-5.54 122.76) rotate(-84.12)"/><ellipse class="cls-82" cx="62.13" cy="62.89" rx="0.35" ry="0.33" transform="translate(-6.79 118.25) rotate(-84.12)"/><ellipse class="cls-82" cx="58.37" cy="61.39" rx="0.35" ry="0.33" transform="translate(-8.68 113.17) rotate(-84.12)"/><ellipse class="cls-82" cx="54.98" cy="56.36" rx="0.35" ry="0.33" transform="translate(-7.69 104.02) rotate(-82.96)"/><ellipse class="cls-82" cx="55.1" cy="55.16" rx="0.35" ry="0.33" transform="translate(-6.41 103.08) rotate(-82.96)"/><ellipse class="cls-82" cx="46.94" cy="61.42" rx="0.35" ry="0.33" transform="translate(-25.07 89.53) rotate(-73.94)"/><ellipse class="cls-82" cx="37.17" cy="59.15" rx="0.35" ry="0.33" transform="translate(-31.99 69) rotate(-65.95)"/><ellipse class="cls-82" cx="36.61" cy="58" rx="0.35" ry="0.33" transform="translate(-31.27 67.8) rotate(-65.95)"/><ellipse class="cls-82" cx="71.6" cy="63.73" rx="0.35" ry="0.33" transform="translate(6.37 133.95) rotate(-88.78)"/><ellipse class="cls-82" cx="72.55" cy="62.81" rx="0.35" ry="0.33" transform="translate(8.21 134.01) rotate(-88.78)"/><line class="cls-83" x1="62.99" y1="71.86" x2="70.62" y2="64.77"/><line class="cls-81" x1="53.94" y1="68.14" x2="54.8" y2="57.55"/><line class="cls-84" x1="42.06" y1="70.03" x2="37.6" y2="60.21"/><line class="cls-81" x1="73.14" y1="73.92" x2="67.83" y2="76.79"/><line class="cls-81" x1="71.5" y1="71.78" x2="66.59" y2="75.25"/><line class="cls-81" x1="69.48" y1="69.52" x2="65.1" y2="73.61"/><line class="cls-81" x1="64.49" y1="65.77" x2="61.15" y2="70.64"/><line class="cls-81" x1="61.55" y1="64.23" x2="58.93" y2="69.49"/><line class="cls-81" x1="58.02" y1="62.98" x2="56.48" y2="68.61"/><ellipse class="cls-82" cx="50.72" cy="60.99" rx="0.35" ry="0.33" transform="translate(-18.59 99.56) rotate(-79.35)"/><line class="cls-83" x1="50.86" y1="62.21" x2="51.27" y2="68.03"/><line class="cls-83" x1="47.19" y1="62.56" x2="48.03" y2="68.34"/><ellipse class="cls-82" cx="42.87" cy="62.39" rx="0.35" ry="0.33" transform="translate(-30.16 82.3) rotate(-70.76)"/><line class="cls-83" x1="43.2" y1="63.44" x2="44.93" y2="69.06"/><ellipse class="cls-82" cx="74.05" cy="73.48" rx="0.35" ry="0.33" transform="translate(-6.63 139.62) rotate(-84.12)"/><ellipse class="cls-82" cx="80.77" cy="75.58" rx="0.33" ry="0.35" transform="translate(-18.5 26.77) rotate(-16.92)"/><ellipse class="cls-82" cx="81.96" cy="75.16" rx="0.33" ry="0.35" transform="matrix(0.96, -0.29, 0.29, 0.96, -18.32, 27.1)"/></g></g></svg>