<svg xmlns="http://www.w3.org/2000/svg" viewBox="0 0 38.12 46.81"><defs><style>.cls-1{fill:none;stroke:#cd983f;stroke-miterlimit:10;}.cls-2{font-size:8.85px;fill:#cd983f;font-family:LibreBaskerville-Bold, LibreBaskerville Bold;font-weight:700;}</style></defs><title>shop</title><g id="Layer_2" data-name="Layer 2"><g id="หน้า4"><path class="cls-1" d="M12.76,17l.06-11.35A6,6,0,0,1,18.94.5a6.33,6.33,0,0,1,4.53,1.7,6.1,6.1,0,0,1,1.81,3.66q0,5.59,0,11.19"/><circle class="cls-1" cx="12.74" cy="17.8" r="0.87"/><circle class="cls-1" cx="25.33" cy="17.83" r="0.87"/><path class="cls-1" d="M.5,44.57q2.34-16,4.69-32a1.84,1.84,0,0,1,.44-.64,2,2,0,0,1,1.58-.47l24.11-.08A1.87,1.87,0,0,1,33,13.06q2.31,15.58,4.6,31.18a1.65,1.65,0,0,1-.19,1.17,1.68,1.68,0,0,1-1,.73l-34.85.17a1.86,1.86,0,0,1-.79-.69A2,2,0,0,1,.5,44.57Z"/><text class="cls-2" transform="translate(10.53 34.25)">shop</text></g></g></svg>